<svg width="186" height="56" viewBox="0 0 186 56" fill="none" xmlns="http://www.w3.org/2000/svg">
<g clip-path="url(#clip0_11_168)">
<path d="M54.7099 31.4412C59.5541 19.8395 54.0005 6.5388 42.3056 1.73321C30.6107 -3.07237 17.2031 2.43697 12.3589 14.0387C7.5147 25.6404 13.0683 38.9411 24.7632 43.7467C36.4581 48.5523 49.8657 43.0429 54.7099 31.4412Z" fill="white"/>
<path d="M11.5764 31.8022C11.2355 30.9945 10.68 30.2937 9.96926 29.7746C9.25848 29.2554 8.41899 28.9373 7.54032 28.8541C6.66164 28.771 5.7767 28.9259 4.9798 29.3024C4.1829 29.6789 3.5039 30.2629 3.0152 30.9921C2.52651 31.7212 2.24643 32.5683 2.2048 33.443C2.16317 34.3176 2.36155 35.1871 2.77882 35.9587C3.19608 36.7303 3.81656 37.3751 4.57416 37.8244C5.33175 38.2738 6.19806 38.5107 7.08073 38.5101C7.72357 38.5091 8.35968 38.3802 8.95143 38.131C9.5427 37.8865 10.0796 37.5288 10.5316 37.0784C10.9835 36.628 11.3415 36.0937 11.5853 35.506C11.829 34.9183 11.9537 34.2887 11.9522 33.6532C11.9507 33.0177 11.823 32.3887 11.5764 31.8022Z" fill="white"/>
<path d="M4.88778 27.639C5.85345 27.6377 6.79704 27.3523 7.59914 26.8188C8.40124 26.2854 9.0258 25.5279 9.39383 24.6422C9.76185 23.7566 9.85681 22.7825 9.66664 21.8433C9.47647 20.9041 9.00973 20.0419 8.3255 19.3659C7.64127 18.6899 6.77031 18.2304 5.82278 18.0456C4.87525 17.8608 3.89371 17.959 3.00243 18.3277C2.11115 18.6964 1.35017 19.3191 0.815725 20.117C0.281277 20.9148 -0.00257996 21.8521 4.86093e-05 22.81C0.000483147 23.4459 0.127298 24.0754 0.373288 24.6626C0.619279 25.2497 0.979586 25.783 1.43359 26.2318C1.88759 26.6807 2.42639 27.0363 3.0191 27.2783C3.61182 27.5204 4.24682 27.6441 4.88778 27.6423V27.639Z" fill="white"/>
<path d="M16.7499 39.443C16.0673 38.7671 15.1982 38.3072 14.2523 38.1212C13.3063 37.9352 12.326 38.0316 11.4352 38.3981C10.5445 38.7646 9.78322 39.3848 9.24764 40.1804C8.71207 40.9759 8.42621 41.9111 8.42621 42.8678C8.42621 43.8244 8.71207 44.7596 9.24764 45.5552C9.78322 46.3507 10.5445 46.9709 11.4352 47.3374C12.326 47.704 13.3063 47.8003 14.2523 47.6143C15.1982 47.4284 16.0673 46.9684 16.7499 46.2926C17.2038 45.8431 17.5639 45.3093 17.8096 44.7216C18.0553 44.1339 18.1817 43.504 18.1817 42.8678C18.1817 42.2316 18.0553 41.6016 17.8096 41.0139C17.5639 40.4262 17.2038 39.8924 16.7499 39.443Z" fill="white"/>
<path d="M24.462 44.5653C23.8688 44.3151 23.2314 44.184 22.5868 44.1796C21.9422 44.1752 21.3031 44.2976 20.7065 44.5398C20.1099 44.7819 19.5675 45.1389 19.1108 45.5902C18.6542 46.0415 18.2922 46.5782 18.0458 47.1691C17.7995 47.76 17.6736 48.3936 17.6756 49.033C17.6775 49.6725 17.8072 50.3053 18.0572 50.8947C18.3072 51.4842 18.6724 52.0186 19.1318 52.4672C19.5912 52.9157 20.1357 53.2695 20.7338 53.5081C21.3238 53.7545 21.9578 53.8801 22.5979 53.8772C23.7272 53.878 24.8219 53.49 25.695 52.7794C26.5682 52.0689 27.1657 51.0797 27.3856 49.9809C27.6056 48.882 27.4344 47.7414 26.9012 46.7538C26.368 45.7662 25.5059 44.9927 24.462 44.5653Z" fill="white"/>
<path d="M33.5563 46.3189C32.5911 46.3202 31.6479 46.6054 30.846 47.1384C30.0441 47.6714 29.4195 48.4283 29.0512 49.3134C28.6829 50.1985 28.5873 51.1721 28.7767 52.111C28.9661 53.05 29.4318 53.9122 30.115 54.5886C30.7983 55.265 31.6683 55.7252 32.6152 55.9112C33.5621 56.0971 34.5432 56.0003 35.4347 55.6332C36.3261 55.266 37.0879 54.6448 37.6235 53.8482C38.1592 53.0516 38.4447 52.1154 38.444 51.1578C38.4445 50.5214 38.3183 49.8912 38.0727 49.3033C37.8271 48.7153 37.4669 48.1813 37.0128 47.7317C36.5587 47.2822 36.0197 46.926 35.4265 46.6835C34.8334 46.4411 34.1978 46.3172 33.5563 46.3189Z" fill="white"/>
<path d="M119.483 31.4409C124.328 19.8392 118.774 6.53845 107.079 1.73287C95.3842 -3.07271 81.9766 2.43662 77.1324 14.0383C72.2882 25.64 77.8418 38.9408 89.5367 43.7464C101.232 48.552 114.639 43.0426 119.483 31.4409Z" fill="white"/>
<path d="M76.3498 31.8022C76.0089 30.9946 75.4536 30.294 74.743 29.7748C74.0323 29.2557 73.1931 28.9375 72.3145 28.8542C71.436 28.7709 70.5512 28.9257 69.7543 29.3019C68.9574 29.6781 68.2784 30.2618 67.7895 30.9907C67.3007 31.7196 67.0203 32.5664 66.9783 33.4409C66.9363 34.3154 67.1342 35.1848 67.551 35.9565C67.9678 36.7282 68.5879 37.3733 69.3451 37.8229C70.1023 38.2726 70.9683 38.5101 71.8508 38.5101C72.4948 38.5094 73.132 38.3805 73.7248 38.131C74.9183 37.6364 75.8652 36.6921 76.3574 35.5054C76.8496 34.3188 76.8468 32.9868 76.3498 31.8022Z" fill="white"/>
<path d="M69.6611 27.639C70.6268 27.6377 71.5704 27.3523 72.3725 26.8188C73.1746 26.2854 73.7991 25.5279 74.1672 24.6422C74.5352 23.7566 74.6301 22.7825 74.44 21.8433C74.2498 20.9041 73.7831 20.0419 73.0989 19.3659C72.4147 18.6899 71.5437 18.2304 70.5961 18.0456C69.6486 17.8608 68.6671 17.959 67.7758 18.3277C66.8845 18.6964 66.1235 19.3191 65.5891 20.117C65.0546 20.9148 64.7708 21.8521 64.7734 22.81C64.7738 23.4462 64.9008 24.076 65.147 24.6633C65.3932 25.2507 65.7538 25.7841 66.2081 26.233C66.6625 26.6819 67.2017 27.0375 67.7948 27.2793C68.3879 27.5211 69.0232 27.6445 69.6644 27.6423L69.6611 27.639Z" fill="white"/>
<path d="M81.5233 39.443C80.8407 38.7671 79.9716 38.3072 79.0256 38.1212C78.0797 37.9352 77.0994 38.0316 76.2087 38.3981C75.3179 38.7646 74.5566 39.3848 74.021 40.1804C73.4854 40.9759 73.1996 41.9111 73.1996 42.8678C73.1996 43.8244 73.4854 44.7596 74.021 45.5552C74.5566 46.3507 75.3179 46.9709 76.2087 47.3374C77.0994 47.704 78.0797 47.8003 79.0256 47.6143C79.9716 47.4284 80.8407 46.9684 81.5233 46.2926C81.9768 45.8429 82.3365 45.309 82.582 44.7213C82.8274 44.1337 82.9538 43.5039 82.9538 42.8678C82.9538 42.2317 82.8274 41.6018 82.582 41.0142C82.3365 40.4265 81.9768 39.8926 81.5233 39.443Z" fill="white"/>
<path d="M89.2353 44.5653C88.6421 44.3151 88.0048 44.184 87.3601 44.1796C86.7155 44.1752 86.0765 44.2976 85.4798 44.5398C84.8832 44.7819 84.3409 45.1389 83.8842 45.5902C83.4275 46.0415 83.0655 46.5782 82.8192 47.1691C82.5728 47.76 82.447 48.3936 82.4489 49.033C82.4509 49.6725 82.5806 50.3053 82.8305 50.8947C83.0805 51.4842 83.4458 52.0186 83.9052 52.4672C84.3646 52.9157 84.9091 53.2695 85.5072 53.5081C86.0971 53.7545 86.7312 53.8801 87.3713 53.8772C88.5006 53.878 89.5952 53.49 90.4684 52.7794C91.3415 52.0689 91.939 51.0797 92.159 49.9809C92.379 48.882 92.2078 47.7414 91.6746 46.7538C91.1414 45.7662 90.2793 44.9927 89.2353 44.5653Z" fill="white"/>
<path d="M98.333 46.3189C97.3676 46.3196 96.4241 46.6042 95.6218 47.1368C94.8194 47.6694 94.1944 48.4261 93.8255 49.3111C93.4567 50.1962 93.3607 51.1698 93.5497 52.109C93.7387 53.0482 94.2041 53.9106 94.8872 54.5874C95.5703 55.2641 96.4404 55.7247 97.3873 55.9109C98.3343 56.0971 99.3157 56.0005 100.207 55.6334C101.099 55.2663 101.861 54.6452 102.397 53.8485C102.932 53.0519 103.218 52.1155 103.217 51.1578C103.218 50.5217 103.092 49.8917 102.846 49.304C102.601 48.7163 102.241 48.1824 101.787 47.7329C101.334 47.2834 100.795 46.9271 100.202 46.6845C99.6094 46.4418 98.9742 46.3176 98.333 46.3189Z" fill="white"/>
<path d="M184.256 31.4436C189.1 19.8419 183.546 6.54118 171.851 1.73559C160.156 -3.06999 146.749 2.43935 141.905 14.0411C137.06 25.6428 142.614 38.9435 154.309 43.7491C166.004 48.5547 179.411 43.0453 184.256 31.4436Z" fill="white"/>
<path d="M141.123 31.8022C140.782 30.9946 140.227 30.294 139.516 29.7748C138.806 29.2557 137.966 28.9375 137.088 28.8542C136.209 28.7709 135.325 28.9257 134.528 29.3019C133.731 29.6781 133.052 30.2618 132.563 30.9907C132.074 31.7196 131.794 32.5664 131.752 33.4409C131.71 34.3154 131.908 35.1848 132.324 35.9565C132.741 36.7282 133.361 37.3733 134.118 37.8229C134.876 38.2726 135.742 38.5101 136.624 38.5101C137.268 38.5091 137.905 38.3802 138.498 38.131C139.692 37.6364 140.639 36.6921 141.131 35.5054C141.623 34.3188 141.62 32.9868 141.123 31.8022Z" fill="white"/>
<path d="M134.435 27.6391C135.4 27.6371 136.343 27.3511 137.145 26.8173C137.947 26.2835 138.571 25.5258 138.938 24.64C139.306 23.7543 139.4 22.7803 139.21 21.8413C139.019 20.9023 138.552 20.0405 137.868 19.3648C137.183 18.6891 136.312 18.23 135.365 18.0454C134.418 17.8609 133.436 17.9592 132.545 18.328C131.654 18.6969 130.893 19.3195 130.359 20.1174C129.825 20.9152 129.541 21.8522 129.543 22.8101C129.544 23.4461 129.672 24.0757 129.918 24.6629C130.164 25.2501 130.525 25.7833 130.979 26.2321C131.433 26.6809 131.972 27.0365 132.565 27.2785C133.158 27.5205 133.793 27.6441 134.435 27.6424V27.6391Z" fill="white"/>
<path d="M146.297 39.443C145.614 38.7671 144.745 38.3072 143.799 38.1212C142.853 37.9352 141.873 38.0316 140.982 38.3981C140.091 38.7646 139.33 39.3848 138.794 40.1804C138.259 40.9759 137.973 41.9111 137.973 42.8678C137.973 43.8244 138.259 44.7596 138.794 45.5552C139.33 46.3507 140.091 46.9709 140.982 47.3374C141.873 47.704 142.853 47.8003 143.799 47.6143C144.745 47.4284 145.614 46.9684 146.297 46.2926C146.75 45.8429 147.11 45.309 147.355 44.7213C147.601 44.1337 147.727 43.5039 147.727 42.8678C147.727 42.2317 147.601 41.6018 147.355 41.0142C147.11 40.4265 146.75 39.8926 146.297 39.443Z" fill="white"/>
<path d="M154.005 44.5653C153.411 44.3085 152.771 44.1718 152.123 44.1633C151.474 44.1547 150.831 44.2744 150.23 44.5154C149.629 44.7564 149.082 45.1139 148.622 45.5669C148.162 46.02 147.797 46.5594 147.55 47.1539C147.302 47.7483 147.176 48.3857 147.18 49.0288C147.184 49.672 147.316 50.308 147.571 50.8996C147.825 51.4912 148.196 52.0266 148.661 52.4745C149.126 52.9224 149.677 53.2737 150.281 53.5081C150.871 53.7545 151.505 53.8801 152.145 53.8772C153.276 53.8811 154.373 53.4946 155.249 52.784C156.124 52.0733 156.723 51.0827 156.943 49.9819C157.163 48.8812 156.99 47.7388 156.454 46.7506C155.918 45.7623 155.053 44.9898 154.005 44.5653Z" fill="white"/>
<path d="M163.103 46.3189C162.138 46.3202 161.195 46.6054 160.393 47.1384C159.591 47.6714 158.966 48.4283 158.598 49.3134C158.23 50.1985 158.134 51.1721 158.323 52.111C158.513 53.05 158.979 53.9121 159.662 54.5885C160.345 55.2649 161.215 55.7252 162.162 55.9111C163.109 56.0971 164.09 56.0003 164.981 55.6331C165.873 55.2659 166.635 54.6448 167.17 53.8482C167.706 53.0516 167.991 52.1154 167.991 51.1578C167.99 50.5216 167.864 49.8918 167.618 49.3043C167.372 48.7167 167.012 48.183 166.558 47.7337C166.104 47.2843 165.565 46.928 164.972 46.6853C164.379 46.4425 163.744 46.318 163.103 46.3189Z" fill="white"/>
<path d="M25.4854 33.4767V12.3642H37.6831C38.7103 12.3351 39.7172 12.651 40.5407 13.2608C40.9032 13.4871 41.2032 13.7993 41.4138 14.1693C41.6243 14.5393 41.7388 14.9555 41.7468 15.3803V19.906C41.7411 20.3345 41.6279 20.7548 41.4173 21.1289C41.2067 21.5029 40.9054 21.8191 40.5407 22.0486C40.4806 22.0928 40.4173 22.1325 40.3513 22.1673L40.5407 22.309C40.9034 22.5351 41.2036 22.8473 41.4142 23.2173C41.6248 23.5874 41.7391 24.0036 41.7468 24.4285V30.4606C41.7411 30.8891 41.6279 31.3093 41.4173 31.6834C41.2067 32.0575 40.9054 32.3736 40.5407 32.6032C39.7118 33.2 38.7068 33.5072 37.6831 33.4767H25.4854ZM37.6831 19.7676V17.0251C37.6831 16.588 37.5081 16.1688 37.1965 15.8597C36.885 15.5506 36.4624 15.377 36.0218 15.377H29.5524V21.4091H36.0251C36.464 21.4083 36.8847 21.2351 37.1954 20.9276C37.506 20.62 37.6814 20.203 37.6831 19.7676ZM37.6831 28.8158V26.0733C37.6831 25.6362 37.5081 25.217 37.1965 24.9079C36.885 24.5988 36.4624 24.4252 36.0218 24.4252H29.5524V30.4573H36.0251C36.464 30.4565 36.8847 30.2833 37.1954 29.9758C37.506 29.6682 37.6814 29.2512 37.6831 28.8158Z" fill="#023E8A"/>
<path d="M94.4055 33.4767C93.3979 33.5094 92.4091 33.2014 91.6011 32.6032C91.251 32.3638 90.9645 32.0439 90.766 31.6708C90.5675 31.2977 90.463 30.8825 90.4615 30.4607V28.3247L94.4055 27.4446V30.4607H102.297V24.4285H94.4055C93.3979 24.4612 92.4091 24.1532 91.6011 23.555C91.251 23.3156 90.9645 22.9957 90.766 22.6226C90.5675 22.2495 90.463 21.8343 90.4615 21.4125V15.3803C90.4654 14.9621 90.5711 14.551 90.7695 14.182C90.9679 13.813 91.2532 13.497 91.6011 13.2608C92.4035 12.6496 93.3944 12.3328 94.4055 12.3643H102.297C103.299 12.3348 104.28 12.6518 105.072 13.2608C105.426 13.4924 105.718 13.8067 105.922 14.1762C106.126 14.5457 106.236 14.9591 106.241 15.3803V17.5163L102.297 18.3964V15.3803H94.4055V21.4125H102.297C103.299 21.383 104.28 21.7 105.072 22.309C105.426 22.5404 105.719 22.8547 105.923 23.2242C106.126 23.5937 106.236 24.0073 106.241 24.4285V30.4607C106.238 30.8855 106.129 31.3029 105.925 31.6764C105.721 32.05 105.428 32.3682 105.072 32.6032C104.273 33.1983 103.295 33.5063 102.297 33.4767H94.4055Z" fill="#023E8A"/>
<path d="M159.385 33.4767C158.377 33.5099 157.388 33.2019 156.581 32.6032C156.23 32.364 155.943 32.0442 155.744 31.6711C155.545 31.298 155.44 30.8827 155.437 30.4606V28.3247L159.385 27.4446V30.4606H167.273V24.4285H159.385C158.377 24.4617 157.388 24.1536 156.581 23.555C156.23 23.3158 155.943 22.996 155.744 22.6229C155.545 22.2498 155.44 21.8345 155.437 21.4124V15.3803C155.442 14.9619 155.548 14.5507 155.747 14.1817C155.946 13.8127 156.232 13.4968 156.581 13.2608C157.383 12.6494 158.374 12.3325 159.385 12.3642H167.273C168.275 12.3348 169.256 12.6517 170.048 13.2608C170.402 13.4924 170.694 13.8067 170.898 14.1762C171.102 14.5457 171.212 14.9591 171.217 15.3803V17.5163L167.273 18.3964V15.3803H159.385V21.4124H167.273C168.275 21.383 169.256 21.6999 170.048 22.309C170.402 22.5404 170.695 22.8546 170.899 23.2242C171.103 23.5937 171.212 24.0073 171.217 24.4285V30.4606C171.214 30.8854 171.105 31.3029 170.901 31.6764C170.697 32.05 170.404 32.3682 170.048 32.6032C169.249 33.1983 168.271 33.5063 167.273 33.4767H159.385Z" fill="#023E8A"/>
</g>
<defs>
<clipPath id="clip0_11_168">
<rect width="186" height="56" fill="white"/>
</clipPath>
</defs>
</svg>
