<svg width="42" height="43" viewBox="0 0 42 43" fill="none" xmlns="http://www.w3.org/2000/svg">
<path d="M20.7663 12.0813C21.2967 11.2697 21.8109 10.5207 22.2845 9.87195C21.7955 9.80872 21.2979 9.77261 20.7916 9.77261C14.418 9.77261 9.25128 14.9394 9.25128 21.3129C9.25128 25.2977 11.271 28.8107 14.3425 30.8843C14.606 30.0914 14.8794 29.3352 15.1547 28.6222C12.9687 26.9338 11.5594 24.2887 11.5594 21.3129C11.5594 16.2225 15.6792 12.095 20.7663 12.0813Z" fill="white"/>
<path d="M20.7916 30.5451C20.2442 30.5451 19.7089 30.4947 19.1877 30.4034C18.6405 31.2421 18.1925 31.9586 17.8731 32.4801C18.8054 32.7231 19.7832 32.8532 20.7916 32.8532C27.1651 32.8532 32.3319 27.6864 32.3319 21.3129C32.3319 18.1928 31.0916 15.364 29.0798 13.2868C28.5009 13.8508 27.9607 14.3998 27.4564 14.928C29.0455 16.5864 30.0238 18.8347 30.0238 21.3129C30.0238 26.4117 25.8905 30.5451 20.7916 30.5451Z" fill="white"/>
<path d="M25.8988 20.8218C25.8988 20.8218 24.8676 20.1343 22.756 19.4959C22.756 19.4959 26.6355 14.1923 32.5775 9.37974C32.5775 9.37974 27.2566 8.15201 24.5238 8.15201C23.0997 9.2324 18.5327 16.3039 16.4211 21.0182C16.4211 21.0182 18.189 21.8531 18.7291 22.3932C18.7291 22.3932 16.2246 26.6165 14.5059 32.313L12.9835 31.2326L14.0148 36.4872L18.7537 33.5898L16.8139 33.0987C16.8139 33.0987 21.2091 25.5116 25.8988 20.8218Z" fill="white"/>
<path d="M17.1254 40.2268L16.7382 40.1379C16.5748 40.1005 16.4558 40.0358 16.381 39.9434C16.3062 39.851 16.2831 39.742 16.3119 39.6165C16.342 39.4853 16.412 39.3924 16.5221 39.338C16.632 39.2833 16.7687 39.2747 16.932 39.3121L17.3148 39.3999L17.1254 40.2268ZM16.8346 41.4955L16.5699 41.4351C16.2258 41.3559 16.08 41.2014 16.1328 40.971C16.1611 40.8469 16.2255 40.7592 16.3256 40.7076C16.4256 40.6561 16.5486 40.6472 16.6943 40.6806L17.0051 40.7517L16.8346 41.4955ZM16.0352 38.8244C15.791 38.9458 15.636 39.1501 15.5701 39.4375C15.525 39.6344 15.5535 39.8165 15.6554 39.9843C15.7576 40.152 15.917 40.2752 16.1337 40.354L16.1317 40.3629C15.9425 40.3716 15.776 40.4266 15.6324 40.5269C15.4888 40.6276 15.3977 40.7626 15.3589 40.9318C15.3054 41.1652 15.3581 41.3674 15.5168 41.5389C15.6755 41.7104 15.93 41.8362 16.2798 41.9165L17.4219 42.1783L18.1408 39.0411L16.9355 38.7649C16.5797 38.6834 16.2795 38.7032 16.0352 38.8244Z" fill="white"/>
<path d="M14.7907 38.1505L14.0526 39.7699C13.9533 39.9877 13.8468 40.245 13.7329 40.5419L13.7145 40.5333C13.7722 40.295 13.8037 40.1448 13.8087 40.083L14.0087 37.794L13.4694 37.5483L11.8757 39.2266C11.8125 39.2931 11.7229 39.4085 11.6069 39.5728L11.5905 39.5653C11.7112 39.3441 11.8147 39.1386 11.9008 38.9495L12.6996 37.1972L12.0481 36.9002L10.7132 39.8289L11.6547 40.2579L13.0424 38.7991C13.1378 38.6978 13.241 38.5746 13.3515 38.4293L13.3639 38.4348C13.3217 38.585 13.2928 38.7404 13.2771 38.9009L13.0841 40.9096L14.0501 41.3499L15.3851 38.4213L14.7907 38.1505Z" fill="white"/>
<path d="M9.99672 35.4098L9.65778 35.8903L10.6426 36.5849L10.2181 37.1866L9.35808 36.5797L9.01914 37.0602L9.87916 37.6671L9.46655 38.2521L8.5422 37.5997L8.20197 38.0823L9.71863 39.1521L11.5738 36.5224L9.99672 35.4098Z" fill="white"/>
<path d="M4.27618 34.117L4.77281 34.6904L6.89549 33.7337C7.00957 33.6822 7.10782 33.6278 7.19041 33.5702L7.19921 33.5803C7.13404 33.6468 7.06741 33.7331 6.99923 33.8396L5.74565 35.8135L6.25697 36.4036L7.97249 33.4687L7.4347 32.8477L4.27618 34.117Z" fill="white"/>
<path d="M4.39193 33.2319L6.13115 32.0617L6.2815 32.2852L6.74709 31.9719L6.04169 30.9236L5.5761 31.2367L5.72645 31.4603L3.98736 32.6305L3.83688 32.4069L3.37146 32.7203L4.07686 33.7685L4.5424 33.4555L4.39193 33.2319Z" fill="white"/>
<path d="M4.94414 28.9228L4.4252 29.1994L4.98573 30.2512L2.66437 31.4884L3.00536 32.1281L5.84563 30.6143L4.94414 28.9228Z" fill="white"/>
<path d="M1.50078 25.8978C1.40383 25.8881 1.30843 25.8892 1.21478 25.9016L1.21089 25.884C1.31848 25.8503 1.40915 25.8127 1.48282 25.7709L2.46861 25.2068L2.64065 26.0123L1.50078 25.8978ZM4.15259 26.8388L4.12097 26.8508L3.96484 26.1197L3.21731 26.0476L2.97817 24.9282L3.6305 24.5548L3.46549 23.7822L0.557129 25.5739L0.736671 26.4145L4.05161 26.8771L3.60274 27.0472L4.02544 28.1615L1.56595 29.0943L1.82306 29.7724L4.8324 28.6308L4.15259 26.8388Z" fill="white"/>
<path d="M3.42677 22.8976L1.64722 22.9265C1.40783 22.9304 1.12974 22.9446 0.812916 22.9691L0.812497 22.949C1.05264 22.8987 1.20169 22.8626 1.25966 22.8408L3.41283 22.0381L3.4032 21.4456L1.20295 20.7271C1.1158 20.6987 0.973068 20.6673 0.774972 20.6331L0.774679 20.6151C1.0263 20.629 1.25618 20.6342 1.46408 20.6309L3.3895 20.5997L3.37786 19.8838L0.159912 19.936L0.176622 20.9704L2.09019 21.5971C2.2227 21.6399 2.37825 21.68 2.55691 21.7175L2.55708 21.7309C2.40342 21.7574 2.25064 21.7981 2.09882 21.8529L0.202044 22.5413L0.219341 23.6028L3.43741 23.5506L3.42677 22.8976Z" fill="white"/>
<path d="M1.19969 17.4148C1.25079 17.1732 1.38171 17.0021 1.59262 16.9013C1.80353 16.8006 2.07215 16.7848 2.39857 16.8537C2.71192 16.9199 2.94168 17.0433 3.08772 17.224C3.23388 17.4047 3.28108 17.6174 3.2294 17.8618C3.17935 18.0989 3.04814 18.2715 2.83564 18.3796C2.6233 18.4878 2.361 18.5088 2.04924 18.4429C1.7418 18.378 1.51015 18.2527 1.35448 18.0668C1.19869 17.881 1.14717 17.6637 1.19969 17.4148ZM1.92896 19.1975C2.40029 19.297 2.81277 19.2357 3.16629 19.0138C3.51972 18.7917 3.7442 18.4553 3.83927 18.0044C3.93697 17.5417 3.86473 17.1345 3.62249 16.7829C3.38017 16.4313 3.01158 16.2033 2.51667 16.0986C2.03517 15.997 1.61791 16.0538 1.26503 16.269C0.912265 16.4844 0.688413 16.8167 0.593427 17.2662C0.492997 17.742 0.565954 18.1564 0.812547 18.5098C1.05902 18.8632 1.43117 19.0923 1.92896 19.1975Z" fill="white"/>
<path d="M1.69731 15.127C1.78492 15.2337 1.90679 15.3176 2.06276 15.3786C2.26198 15.4567 2.45451 15.4658 2.64025 15.4059C2.82599 15.3461 3.01345 15.2183 3.20262 15.0224C3.27617 14.9453 3.34665 14.874 3.41395 14.8087C3.4813 14.7436 3.54592 14.6897 3.60749 14.6471C3.66918 14.6046 3.72948 14.5757 3.78862 14.5601C3.84759 14.5447 3.90643 14.5485 3.96498 14.5713C4.00816 14.5883 4.04413 14.6145 4.07291 14.6497C4.10151 14.6851 4.12124 14.7294 4.13175 14.7825C4.14222 14.8356 4.14285 14.8969 4.13334 14.9663C4.12383 15.0358 4.10239 15.1129 4.06901 15.1979C4.0123 15.3428 3.93076 15.4763 3.82413 15.5986C3.71767 15.7207 3.58981 15.8224 3.44059 15.9039L4.10943 16.1659C4.20768 16.079 4.29977 15.9667 4.3858 15.8294C4.47169 15.6918 4.54695 15.541 4.61141 15.3766C4.67415 15.2163 4.71829 15.058 4.74417 14.9019C4.77009 14.7457 4.76909 14.5995 4.74132 14.4633C4.71356 14.3271 4.65526 14.2051 4.56651 14.0972C4.47777 13.9892 4.34982 13.9026 4.18268 13.8372C4.06139 13.7897 3.94819 13.7662 3.84273 13.7667C3.73723 13.7671 3.63567 13.7875 3.53784 13.828C3.44 13.8685 3.34418 13.9254 3.25037 13.9987C3.1566 14.072 3.06119 14.1587 2.96411 14.259C2.89346 14.3325 2.82754 14.3974 2.76614 14.4538C2.70471 14.5101 2.64657 14.5556 2.59205 14.5905C2.53739 14.6253 2.485 14.6482 2.43495 14.6591C2.38486 14.67 2.33481 14.6657 2.2846 14.646C2.2387 14.628 2.20184 14.6 2.17424 14.5618C2.14664 14.5237 2.12792 14.4778 2.11842 14.4242C2.10878 14.3706 2.10908 14.3096 2.119 14.2413C2.12893 14.1728 2.14878 14.1003 2.17885 14.0236C2.20071 13.968 2.22789 13.9107 2.26056 13.852C2.29323 13.7933 2.3305 13.736 2.37251 13.6801C2.41451 13.6243 2.46025 13.5719 2.50988 13.5231C2.5595 13.4742 2.61173 13.4315 2.66613 13.395L2.04131 13.1503C1.9625 13.2366 1.88996 13.3365 1.82408 13.4496C1.75803 13.5628 1.69446 13.6973 1.63331 13.8534C1.57112 14.0123 1.52928 14.1694 1.50771 14.3249C1.48627 14.4803 1.49058 14.6263 1.52065 14.7625C1.55085 14.8989 1.60969 15.0203 1.69731 15.127Z" fill="white"/>
<path d="M5.48774 13.2419L3.98301 12.2915C3.78056 12.1636 3.54004 12.0233 3.26149 11.8702L3.2723 11.8532C3.50076 11.9426 3.6452 11.9941 3.70576 12.0075L5.94684 12.5151L6.26321 12.0141L4.81573 10.2079C4.75831 10.1363 4.6562 10.0319 4.50916 9.89487L4.51879 9.87963C4.72166 10.0291 4.91109 10.1593 5.08695 10.2704L6.7151 11.2988L7.09739 10.6933L4.37619 8.97467L3.82374 9.84956L5.08175 11.4218C5.16907 11.5301 5.27725 11.6488 5.40616 11.7781L5.39896 11.7895C5.25598 11.7275 5.10592 11.6779 4.94882 11.6406L2.98483 11.1779L2.41785 12.0754L5.139 13.7941L5.48774 13.2419Z" fill="white"/>
<path d="M5.63891 7.14867L5.5851 6.14074L5.1562 6.60313L5.29104 7.52386L5.63891 7.14867Z" fill="white"/>
<path d="M7.52017 10.2922L8.83267 8.87714L8.40151 8.47718L7.5819 9.36082L7.04223 8.86031L7.75797 8.08844L7.32681 7.68865L6.61102 8.46051L6.08605 7.97365L6.85531 7.14424L6.42256 6.74286L5.1604 8.10373L7.52017 10.2922Z" fill="white"/>
<path d="M8.81181 6.56928L8.5668 6.76595L8.00615 6.06775L8.26166 5.86258C8.52404 5.65184 8.74346 5.65615 8.91957 5.8754C9.00387 5.98043 9.03725 6.09854 9.0197 6.22962C9.00245 6.35866 8.93309 6.47186 8.81181 6.56928ZM9.68108 8.15387L8.90964 7.19296L9.06183 7.07084C9.09697 7.04261 9.13508 7.02389 9.1765 7.01472C9.21809 7.00538 9.26357 7.00349 9.31291 7.00881C9.36237 7.01426 9.41589 7.02536 9.47377 7.04232C9.53144 7.05932 9.5946 7.0806 9.66307 7.10619L10.5719 7.43855L11.221 6.9173L10.1511 6.55604C10.0957 6.5372 10.0369 6.51965 9.97488 6.50323C9.91285 6.48685 9.85124 6.47433 9.79056 6.46554C9.72983 6.45678 9.67141 6.45331 9.61533 6.45519C9.55921 6.45708 9.50786 6.46713 9.46108 6.48543L9.45547 6.47835C9.52093 6.38555 9.57115 6.2896 9.60595 6.19076C9.64067 6.09179 9.65863 5.99296 9.65989 5.89407C9.66106 5.79528 9.6454 5.69799 9.61273 5.60233C9.58007 5.5068 9.52855 5.41517 9.45836 5.32768C9.09308 4.8726 8.60579 4.88961 7.99681 5.37861L7.10077 6.09812L9.11582 8.60761L9.68108 8.15387Z" fill="white"/>
<path d="M11.9561 6.5145L11.1126 4.96014C11.0012 4.75496 10.9132 4.60536 10.8483 4.51113L10.8562 4.50678C10.911 4.54506 11.0009 4.5977 11.1257 4.66446L13.2561 5.80897L13.8991 5.45994L12.3638 2.63132L11.7623 2.9579L12.6113 4.52202C12.7161 4.71539 12.7917 4.84216 12.8379 4.90213L12.8301 4.90632C12.7452 4.85368 12.6562 4.80246 12.5628 4.75266L10.5057 3.6398L9.81934 4.01229L11.3546 6.84108L11.9561 6.5145Z" fill="white"/>
<path d="M14.478 2.75183C14.5637 2.52509 14.728 2.37374 14.9708 2.29764C15.2064 2.22384 15.4198 2.25433 15.6108 2.38885C15.8019 2.5235 15.9473 2.74999 16.047 3.06837C16.1427 3.37393 16.1476 3.63464 16.0616 3.85058C15.9754 4.06639 15.8132 4.21167 15.5747 4.28634C15.3434 4.35871 15.1286 4.32881 14.9305 4.19643C14.7322 4.06421 14.5855 3.84597 14.4902 3.54183C14.3963 3.24188 14.3923 2.97858 14.478 2.75183ZM14.5394 4.79524C14.906 4.99476 15.3093 5.02571 15.7491 4.88788C16.2003 4.74657 16.5198 4.48431 16.7078 4.1009C16.8959 3.71735 16.9143 3.28443 16.7632 2.80176C16.616 2.33202 16.3622 1.99593 16.0019 1.79369C15.6413 1.5914 15.2419 1.55903 14.8036 1.69627C14.3396 1.84156 14.0139 2.10817 13.8264 2.49603C13.6391 2.88405 13.6214 3.32083 13.7734 3.80627C13.9173 4.26607 14.1727 4.59568 14.5394 4.79524Z" fill="white"/>
<path d="M13.9372 1.6183C14.0163 1.6554 14.1044 1.65888 14.2015 1.62835C14.2986 1.59803 14.3689 1.54622 14.4127 1.47297C14.4564 1.3996 14.4646 1.31948 14.4373 1.23245C14.4105 1.14668 14.3581 1.08599 14.2802 1.04985C14.2023 1.01404 14.1147 1.01115 14.0177 1.04152C13.9235 1.07117 13.8536 1.12323 13.808 1.19773C13.7623 1.27245 13.7529 1.35256 13.7798 1.43829C13.8057 1.52118 13.8582 1.58115 13.9372 1.6183Z" fill="white"/>
<path d="M14.9207 1.31142C14.9995 1.34798 15.0867 1.35129 15.1824 1.32122C15.2795 1.29086 15.3501 1.23846 15.3943 1.16438C15.4385 1.09016 15.4472 1.01017 15.4203 0.924568C15.3936 0.838796 15.3405 0.778237 15.2611 0.74268C15.1818 0.707165 15.0943 0.704443 14.9986 0.734346C14.903 0.764291 14.8329 0.816055 14.7886 0.889598C14.7441 0.96314 14.7355 1.04338 14.7629 1.13045C14.7892 1.21472 14.8418 1.27503 14.9207 1.31142Z" fill="white"/>
<path d="M18.3544 4.22365L18.154 2.66095L18.1651 2.65949C18.2153 2.74509 18.251 2.80004 18.2723 2.8245L19.3808 4.09202L20.2184 3.98455L20.2193 4.03979L21.4827 4.01923L21.4735 3.45828L21.2042 3.46259L21.1702 1.36667L21.4396 1.36223L21.4306 0.801281L20.167 0.821719L20.1762 1.38279L20.4456 1.37848L20.4795 3.47436L20.2102 3.47867L20.217 3.89878L18.866 2.46097L19.7836 0.795502L18.9266 0.905439L18.2159 2.34974C18.1842 2.43233 18.1622 2.49548 18.1497 2.53937L18.1385 2.54063L17.9448 1.03146L17.2259 1.12368L17.6355 4.31587L18.3544 4.22365Z" fill="white"/>
<path d="M25.8 4.04454L24.6202 3.79824L24.7707 3.0776L25.8011 3.29265L25.9211 2.71705L24.8907 2.50195L25.0372 1.8012L26.1444 2.03221L26.265 1.45443L24.4479 1.0752L23.7904 4.2258L25.68 4.62015L25.8 4.04454Z" fill="white"/>
<path d="M26.3488 0.426483L25.7316 0.297575L25.0122 0.888006L25.5131 0.992599L26.3488 0.426483Z" fill="white"/>
<path d="M25.9876 4.57928C26.0774 4.67498 26.1922 4.76389 26.332 4.84572C26.4719 4.9276 26.625 4.99838 26.7913 5.05793C26.9533 5.1159 27.1127 5.15564 27.2695 5.17692C27.4266 5.19819 27.5725 5.19287 27.708 5.16109C27.8433 5.1293 27.9635 5.06757 28.0688 4.97564C28.1742 4.88384 28.257 4.7535 28.3174 4.58447C28.3615 4.46189 28.3816 4.34793 28.3782 4.24247C28.3744 4.13719 28.3511 4.03617 28.3076 3.93964C28.2645 3.84293 28.2049 3.74887 28.1287 3.65736C28.0527 3.56572 27.9632 3.47279 27.8602 3.37869C27.7845 3.31034 27.7178 3.24617 27.6597 3.18649C27.6015 3.12677 27.5544 3.07007 27.5181 3.01642C27.4816 2.96289 27.4571 2.91125 27.4447 2.86146C27.4324 2.81183 27.4352 2.76166 27.4534 2.71086C27.47 2.66437 27.4971 2.6268 27.5345 2.59803C27.5716 2.56926 27.6171 2.54928 27.6703 2.53822C27.7235 2.52712 27.7845 2.52553 27.8533 2.53345C27.9218 2.54136 27.9949 2.55921 28.0726 2.58697C28.1287 2.60712 28.1868 2.63271 28.2464 2.66366C28.3059 2.69444 28.3643 2.73012 28.4216 2.77041C28.4786 2.81082 28.5324 2.85501 28.5825 2.90317C28.6328 2.95138 28.6771 3.00234 28.7151 3.05558L28.9415 2.42385C28.8526 2.34758 28.7508 2.2781 28.636 2.21549C28.5208 2.15279 28.3845 2.0932 28.2268 2.03666C28.0663 1.97912 27.9077 1.94184 27.7517 1.92488C27.5958 1.90792 27.4499 1.91655 27.3147 1.95064C27.1792 1.98473 27.0595 2.04717 26.9556 2.1378C26.8514 2.2286 26.7711 2.35273 26.7147 2.51046C26.6425 2.71199 26.6391 2.90464 26.7044 3.08849C26.7694 3.27235 26.9027 3.45608 27.104 3.63939C27.1835 3.71076 27.2566 3.77911 27.3239 3.84457C27.3909 3.91003 27.4467 3.97289 27.491 4.03315C27.5354 4.09359 27.5661 4.15302 27.5831 4.21169C27.6004 4.27024 27.5984 4.32908 27.5771 4.38822C27.5616 4.43194 27.5365 4.46863 27.502 4.49841C27.4675 4.52823 27.4237 4.54908 27.3711 4.56115C27.3182 4.57325 27.2568 4.57555 27.1872 4.56806C27.1176 4.5606 27.0399 4.54146 26.9541 4.51064C26.8074 4.45816 26.6716 4.38043 26.5464 4.27757C26.4212 4.17471 26.3156 4.04999 26.2299 3.90324L25.9876 4.57928Z" fill="white"/>
<path d="M31.1914 6.57173L30.9632 6.42858L32.0773 4.65293L32.3056 4.79595L32.6036 4.32073L31.5332 3.64917L31.2351 4.12452L31.4633 4.26766L30.3492 6.04328L30.121 5.90013L29.8229 6.37548L30.8933 7.04695L31.1914 6.57173Z" fill="white"/>
<path d="M31.7174 7.63537L32.8522 6.27881C33.0018 6.09985 33.1086 5.96286 33.1725 5.86808L33.1794 5.87382C33.1638 5.93886 33.148 6.04172 33.1319 6.18227L32.8517 8.58434L33.4127 9.05395L35.4781 6.58542L34.953 6.14617L33.811 7.51123C33.67 7.67997 33.5799 7.79678 33.5411 7.86182L33.5342 7.85608C33.552 7.75795 33.5667 7.65627 33.5787 7.55106L33.8564 5.22886L33.2574 4.72763L31.1923 7.19612L31.7174 7.63537Z" fill="white"/>
<path d="M34.2662 10.0455L35.2117 9.22771L35.8945 10.017L36.3391 9.6324L35.6565 8.84299L36.2539 8.32623L36.9968 9.18512L37.4434 8.79898L36.2263 7.39178L33.792 9.49717L34.2662 10.0455Z" fill="white"/>
<path d="M36.9162 10.8261C37.1833 10.6604 37.4373 10.5908 37.6782 10.6174C37.9193 10.6438 38.1069 10.7651 38.241 10.9814C38.3711 11.1911 38.395 11.4054 38.3124 11.6239C38.2295 11.8426 38.0465 12.0398 37.7631 12.2158C37.4909 12.3845 37.2397 12.4543 37.0092 12.4247C36.7784 12.3952 36.5974 12.2743 36.4656 12.062C36.3379 11.8561 36.3134 11.6406 36.392 11.4156C36.4708 11.1907 36.6455 10.9942 36.9162 10.8261ZM35.7146 11.1862C35.6128 11.591 35.6836 11.9892 35.9264 12.3808C36.1759 12.7825 36.5097 13.0266 36.9278 13.1131C37.3461 13.1996 37.77 13.1095 38.1996 12.8427C38.6179 12.5832 38.8801 12.2536 38.9859 11.8542C39.0922 11.4547 39.0239 11.0598 38.7817 10.6695C38.5253 10.2563 38.186 10.0074 37.7636 9.92266C37.3412 9.83777 36.9136 9.92953 36.4815 10.1979C36.0723 10.4519 35.8165 10.7814 35.7146 11.1862Z" fill="white"/>
<path d="M39.6998 13.7324L39.8216 14.0368C39.9464 14.3494 39.8783 14.558 39.6173 14.6623C39.4921 14.7123 39.3695 14.7097 39.2493 14.6547C39.1307 14.6004 39.0427 14.5011 38.9851 14.3567L38.8683 14.0649L39.6998 13.7324ZM37.2158 14.7254L38.3599 14.2681L38.4323 14.4494C38.449 14.4911 38.4557 14.5331 38.4525 14.5755C38.4494 14.6178 38.4378 14.6618 38.4183 14.7076C38.3987 14.7533 38.3725 14.8013 38.3394 14.8516C38.3064 14.9018 38.2675 14.9561 38.2229 15.014L37.6397 15.7862L37.9487 16.5594L38.6067 15.6415C38.641 15.594 38.6749 15.5429 38.7086 15.4882C38.7423 15.4337 38.7722 15.3786 38.7984 15.3231C38.8246 15.2675 38.845 15.2126 38.8596 15.1585C38.874 15.1043 38.8795 15.0522 38.8758 15.0022L38.8841 14.9988C38.9537 15.0885 39.0308 15.1645 39.1152 15.2267C39.1998 15.2888 39.289 15.3349 39.3831 15.3649C39.4774 15.395 39.575 15.4083 39.676 15.405C39.777 15.4016 39.8794 15.3792 39.9838 15.3376C40.5257 15.1211 40.6517 14.6501 40.3617 13.9248L39.9352 12.8577L36.9468 14.0522L37.2158 14.7254Z" fill="white"/>
<path d="M38.1271 17.3242L39.8785 17.0076C40.1142 16.9652 40.3861 16.9061 40.6949 16.8305L40.6986 16.8504C40.4696 16.9389 40.3285 16.9986 40.2748 17.0297L38.2799 18.1701L38.3852 18.7531L40.6727 19.1061C40.7633 19.1202 40.9093 19.128 41.1104 19.1297L41.1136 19.1474C40.8629 19.1745 40.6353 19.2064 40.4307 19.2434L38.5357 19.5858L38.6629 20.2903L41.83 19.7181L41.6461 18.7L39.6564 18.3912C39.5189 18.3704 39.3589 18.356 39.1765 18.3479L39.1742 18.3347C39.3215 18.2836 39.4656 18.2189 39.6064 18.1402L41.3667 17.154L41.178 16.1092L38.0109 16.6815L38.1271 17.3242Z" fill="white"/>
<path d="M41.2548 22.1611C41.1423 22.1687 41.0454 22.1841 40.9639 22.2075L39.8737 22.5252L39.8949 21.7019L40.9763 22.08C41.0683 22.1122 41.1613 22.1333 41.2554 22.1432L41.2548 22.1611ZM38.6528 20.5024L38.6327 21.2877L39.3425 21.5327L39.3132 22.677L38.5915 22.8873L38.571 23.6772L41.8179 22.6157L41.8401 21.7564L38.6528 20.5024Z" fill="white"/>
<path d="M40.9682 25.0107L38.3846 24.5283L38.251 25.2431L40.8347 25.7254L40.666 26.6278L41.2464 26.7361L41.716 24.221L41.1357 24.1127L40.9682 25.0107Z" fill="white"/>
<path d="M40.5007 27.2095L38.4957 26.5978L38.5743 26.3402L38.0376 26.1765L37.6688 27.385L38.2054 27.5487L38.2842 27.2912L40.2892 27.903L40.2106 28.1604L40.7473 28.3242L41.1158 27.1157L40.5792 26.952L40.5007 27.2095Z" fill="white"/>
<path d="M37.7283 32.5615C37.7892 32.6377 37.8569 32.7048 37.9314 32.7629L37.9216 32.7778C37.822 32.7249 37.7317 32.6866 37.6503 32.6633L36.5572 32.3557L37.0109 31.6683L37.7283 32.5615ZM37.2837 28.3803L38.7247 29.0172L38.7204 29.0274C38.6211 29.0261 38.5555 29.0283 38.5236 29.0338L36.8656 29.3265L36.5278 30.0907L36.1595 30.6486L36.632 31.2324L36.0013 32.1874L35.2776 31.984L34.8422 32.6432L38.1587 33.4615L38.6323 32.7445L36.6886 30.123L38.5276 29.73L39.478 31.3769L39.8273 30.5867L38.9589 29.2311C38.9048 29.1614 38.8622 29.1099 38.8312 29.0765L38.8358 29.0663L40.2276 29.6814L40.5205 29.0183L37.5769 27.7172L37.2837 28.3803Z" fill="white"/>
<path d="M36.6271 34.5523L35.0365 33.1869L35.212 32.9826L34.7861 32.6169L33.9632 33.576L34.3891 33.9414L34.5643 33.7368L36.1549 35.1024L35.9797 35.3068L36.4052 35.6722L37.2284 34.7135L36.8026 34.348L36.6271 34.5523Z" fill="white"/>
<path d="M29.6422 39.9566C29.5849 39.8594 29.5277 39.78 29.4701 39.7175L28.6961 38.8865L29.4411 38.5352L29.5895 39.6712C29.6022 39.7679 29.6252 39.8605 29.6586 39.9489L29.6422 39.9566ZM31.4222 35.8388L32.3257 37.1296L32.3164 37.1362C32.2322 37.0835 32.1749 37.0516 32.145 37.0398L30.5745 36.4321L29.8668 36.9275L29.2434 37.2217L29.3438 37.9658L28.3085 38.454L27.796 37.9042L27.0816 38.2411L29.4894 40.6639L30.2669 40.2973L29.9648 37.0059L31.7879 37.6375L31.7487 39.5386L32.4569 39.0431L32.4154 37.434C32.4051 37.3463 32.3953 37.2801 32.3858 37.2355L32.395 37.2289L33.2677 38.4757L33.8616 38.0599L32.0161 35.4233L31.4222 35.8388Z" fill="white"/>
<path d="M26.5044 41.1617C26.1798 41.2515 25.9801 41.1608 25.905 40.8895C25.8694 40.7597 25.8855 40.638 25.9534 40.5247C26.0201 40.413 26.1286 40.3365 26.2788 40.2951L26.5815 40.2113L26.82 41.0745L26.5044 41.1617ZM26.1073 38.4958L26.4356 39.6836L26.2474 39.7354C26.204 39.7475 26.1617 39.7495 26.1199 39.7418C26.0779 39.7337 26.0357 39.7176 25.9923 39.6931C25.949 39.6687 25.9042 39.637 25.8579 39.5987C25.8115 39.5602 25.762 39.5159 25.7094 39.4652L25.0062 38.8002L24.2036 39.0221L25.0435 39.7774C25.087 39.8166 25.1339 39.856 25.1843 39.8954C25.2349 39.9351 25.2864 39.9711 25.3387 40.003C25.3911 40.0353 25.4432 40.0614 25.4956 40.0818C25.5476 40.1026 25.5989 40.1135 25.6493 40.1152L25.6516 40.1239C25.5546 40.1831 25.4705 40.2513 25.3995 40.3285C25.3284 40.4055 25.2729 40.4892 25.2326 40.5797C25.1923 40.67 25.1684 40.7655 25.1603 40.8662C25.1526 40.9669 25.1638 41.0714 25.1935 41.1796C25.3491 41.7418 25.8032 41.919 26.5559 41.711L27.6637 41.4049L26.806 38.3027L26.1073 38.4958Z" fill="white"/>
<path d="M21.2152 40.0493C20.7372 40.0493 20.3496 40.4368 20.3496 40.9148C20.3496 41.3928 20.7372 41.7803 21.2152 41.7803C21.6932 41.7803 22.0807 41.3928 22.0807 40.9148C22.0807 40.4368 21.6932 40.0493 21.2152 40.0493Z" fill="white"/>
</svg>
