<svg width="56" height="42" viewBox="0 0 56 42" fill="none" xmlns="http://www.w3.org/2000/svg">
<path d="M55.9769 25.3307C55.5722 25.8048 55.2491 26.3606 54.8022 26.7942C54.319 26.679 53.7639 26.6411 53.2935 26.5144C53.3217 26.0036 53.9243 26.0609 54.0791 25.6762C50.2299 25.96 47.3245 26.276 43.6673 26.2878C44.3098 25.2401 45.2302 24.4671 45.9184 23.466C41.7836 23.5433 38.7289 24.8678 34.7288 25.3274C34.9467 23.5244 36.4436 22.9854 37.1643 21.6789C32.7208 21.7622 29.6894 23.2405 27.4148 25.4678C29.2181 25.2118 30.7447 24.8595 32.3142 24.8591C32.0211 25.9814 31.4787 26.8581 31.1714 27.9682C31.8235 28.3817 32.7518 28.0737 33.4757 27.924C35.6998 27.4624 38.0629 26.9735 40.4631 26.4521C40.2409 27.7118 38.9173 27.8843 38.0983 28.5556C38.082 28.2358 38.2111 28.0614 38.2848 27.8316C37.5899 27.918 36.8929 28.0035 36.287 28.1787C35.2384 30.2023 34.6965 32.7287 32.7887 33.9054C32.5747 33.3642 32.1548 33.0418 31.9596 32.4807C33.3345 31.6857 33.8124 30.0054 34.5916 28.6229C33.4821 28.6768 32.1187 29.3359 31.0045 29.7206C30.4035 29.4863 29.9442 29.1009 29.5801 28.6161C29.8216 27.6771 30.2227 26.8957 30.5326 26.0252C29.5589 26.257 29.0561 26.3305 28.0358 26.4848C27.6087 25.855 26.6436 25.8007 25.5192 25.9156C25.6121 25.0114 26.4518 24.3707 27.0847 23.9306C28.0045 23.2893 29.3224 23.0717 30.0587 22.2271C32.0287 21.684 33.4738 20.6222 35.8383 20.4697C36.4039 19.2951 36.4502 17.7898 36.2603 16.3455C35.7649 17.168 35.3012 18.0217 34.4982 18.5403C34.6371 17.8925 34.2875 16.8033 34.5511 16.0695C33.351 16.8346 32.9059 18.3466 31.7028 19.1085C31.8245 18.4517 31.529 17.3687 31.5552 16.6416C30.8379 17.1771 30.1446 18.6105 29.2 19.2594C29.2987 18.247 29.4252 17.2609 29.5436 16.2686C28.0217 17.6572 26.7185 19.2618 25.5245 20.9764C26.1638 23.4132 24.9096 24.3398 24.2167 25.9406C22.2659 26.0266 21.8257 24.5018 20.6666 23.745C20.7233 21.8434 20.3786 20.4372 21.1828 19.3104C21.2356 20.957 21.2199 22.9617 21.7806 24.3411C22.253 24.5709 22.8915 24.6253 23.4917 24.72C24.8991 23.4848 24.6484 21.0724 24.4812 18.8355C23.4247 17.1076 20.693 17.8668 18.3518 18.0271C17.8989 20.4838 17.2202 23.6064 18.0247 27.0887C18.6009 27.0859 19.1822 27.0881 19.6258 26.9551C19.1286 27.8423 18.6131 28.7125 17.8677 29.3556C16.8047 27.5443 16.7056 25.2053 15.8476 23.323C16.025 19.8756 15.9313 16.1926 17.0508 12.9071C17.3563 12.0103 17.8809 11.0422 18.3 10.1049C19.2206 8.04465 19.9696 6.96625 21.3151 5.31353C22.6574 3.664 23.5339 2.53894 25.4518 1.52966C28.2762 0.797348 31.914 1.14114 33.8031 3.22152C33.2068 1.38691 31.3233 0.657484 28.7405 0.540379C26.3769 0.432485 25.897 0.704086 24.4519 1.65177C20.858 4.0073 18.0028 8.5619 16.2394 12.4083C16.0681 12.0998 16.4152 11.4408 16.5143 11.0652C14.422 12.7592 12.2338 14.2027 9.69006 15.8267C8.94257 16.303 8.23548 17.0636 7.41532 17.4138C6.26215 17.9043 4.8514 17.8243 3.62393 18.3099C2.95056 18.5761 2.56373 19.2594 1.84423 19.579C1.21644 21.442 1.6715 23.1109 2.5382 24.4019C3.41273 24.3233 3.97037 23.9329 4.73045 23.7424C5.6054 24.3132 6.58349 24.7739 7.46729 25.3362C7.82336 25.1453 8.08238 24.9047 8.45525 24.5969C8.64376 24.4411 9.17082 23.7561 9.34121 23.7567C10.0568 23.7564 11.0053 26.1256 11.7951 26.2822C12.3887 25.5566 12.7267 24.5789 13.2506 23.7845C14.1715 25.3382 14.9835 28.7441 15.8836 30.4227C15.942 30.5307 16.5978 31.2322 16.6028 31.3349C16.6287 31.8417 15.5109 32.5134 15.4302 32.9009C13.0833 31.6186 11.1257 29.7319 8.72871 28.3992C6.3338 27.0663 3.68667 26.2775 1.04713 25.0479C0.0075729 23.5214 -0.466269 20.2437 0.722307 18.5714C1.20723 18.2431 1.81045 18.032 2.20747 17.6168C6.2648 17.157 9.13771 14.722 11.8331 12.5958C12.77 11.8565 13.8906 11.0786 14.8955 10.2732C15.9023 9.46569 17.0582 8.64691 17.7556 7.8515C18.5873 6.90219 18.9484 5.50722 19.7964 4.51944C20.1825 4.06962 20.8171 3.71174 21.2755 3.25626C23.2896 1.25114 26.4751 -0.771324 30.8405 0.294246C32.0598 0.591917 33.7945 1.51774 34.6892 2.38125C35.6428 1.99357 36.2909 0.825646 37.5709 1.09117C37.5912 2.92656 36.9789 4.91507 36.7836 7.07457C38.9593 5.59831 41.4493 2.8967 44.492 1.36987C45.4596 0.883085 46.2532 -0.0181758 47.2835 0.595951C47.2865 2.06642 46.9731 2.96461 47.0539 4.30479C47.9017 4.2556 48.9735 3.32328 50.2383 3.11182C52.0305 2.81192 54.2716 2.96028 54.5721 4.36621C53.6123 4.89809 52.8952 5.6693 52.0027 6.26783C49.142 10.269 45.7561 13.7514 41.6763 16.5502C41.495 14.2509 41.8564 11.6149 42.7542 10.0469C40.9796 10.8497 39.2915 12.6119 37.3089 13.5473C37.6451 15.8579 37.6378 17.7804 37.3371 20.2351C37.7932 20.6575 38.4006 20.9195 38.9599 21.2327C38.7059 22.4613 37.9952 23.2394 37.4121 24.1438C38.7007 23.7611 40.1164 23.5745 41.6044 23.2401C43.7509 22.7565 45.9719 21.8721 48.0085 22.7055C47.3495 23.669 46.3411 24.2863 45.5492 25.1197C48.8253 25.2573 52.5806 24.5657 55.9769 25.3307ZM52.3659 4.3057C49.3006 4.02495 47.2585 5.45851 44.3784 5.89972C44.9807 4.5443 46.2923 3.88833 46.1028 1.75051C42.05 3.22989 39.1646 6.73565 35.619 9.05199C35.7881 6.89816 35.8766 4.66358 36.1978 2.6611C32.3254 5.59603 29.3756 10.8554 27.3254 15.591C29.0878 13.3624 30.9684 10.7137 33.1162 9.20294C33.2755 10.9698 32.6939 12.8353 33.6098 14.0299C34.9972 12.9475 36.548 12.3384 37.9669 11.2708C39.7817 9.90437 41.2472 8.14345 44.1193 8.0656C43.7259 9.97379 43.6297 11.4368 43.3282 13.8432C45.7805 11.6888 47.884 8.90804 50.105 6.61301C50.8785 5.81302 51.8568 5.24676 52.3659 4.3057Z" fill="white"/>
<path d="M55.0206 27.716C54.937 28.3815 55.222 28.9183 55.0521 29.3618C52.1071 28.6127 47.6135 28.0682 44.6285 29.3562C43.187 29.9776 41.7574 31.7739 42.8078 33.713C44.5733 36.9699 51.272 35.8544 54.8621 35.1279C54.7999 35.6374 54.7446 36.1551 54.7937 36.7759C49.2006 37.5899 41.8341 38.4446 38.4252 35.135C37.5009 34.2368 36.7162 32.2658 37.5347 30.5215C39.6117 26.0928 50.3364 26.5342 55.0206 27.716Z" fill="white"/>
<path d="M34.1604 37.4807C32.752 37.4644 30.9175 37.5039 29.0508 37.5788C28.7062 36.9658 28.3372 36.3803 27.915 35.8512C24.9573 35.7463 22.1196 35.8854 19.8959 35.7993C19.2393 36.1598 19.1008 37.0321 18.5249 37.4723C16.7135 37.5089 14.4085 37.5769 13.313 37.4694C15.8229 33.8267 18.3399 30.1914 21.0246 26.7224C23.081 26.7127 24.5813 26.8062 27.0379 26.7098C29.3433 30.3729 31.91 33.7587 34.1604 37.4807ZM26.7813 34.2268C25.9259 32.5842 24.9281 31.0947 23.8871 29.6515C22.9016 31.2006 21.8047 32.6397 20.8681 34.2372C23.096 34.2222 25.1029 34.0901 26.7813 34.2268Z" fill="white"/>
<path d="M55.662 40.2579C54.7208 40.3068 54.3396 40.2913 53.3576 40.3021C53.561 41.3836 55.0996 40.8273 55.6718 40.772C55.1491 41.8315 52.6332 41.5085 52.2635 40.7347C51.3531 38.8279 55.5698 38.015 55.662 40.2579ZM53.444 39.5799C53.5119 39.872 54.3778 40.02 54.4478 39.6637C54.2675 39.3975 53.745 39.4343 53.444 39.5799Z" fill="white"/>
<path d="M50.4247 38.9175C51.1244 38.9217 51.2871 38.9413 51.8294 38.9936C51.1554 39.9625 51.0319 41.8283 49.3722 41.5104C48.9154 40.7381 48.4436 39.9805 48.1223 39.0647C48.7101 38.9823 48.7683 38.9854 49.3228 38.9387C49.5754 39.2642 49.6653 39.7626 49.9457 40.0588C50.1362 39.7092 50.3597 39.3911 50.4247 38.9175Z" fill="white"/>
<path d="M47.7038 38.1467L47.7156 38.7638C47.4892 38.9286 46.7459 38.943 46.5134 38.7868L46.5015 38.1698L47.7038 38.1467Z" fill="white"/>
<path d="M47.7216 39.0724C47.7085 40.0656 47.6192 40.4749 47.767 41.4383C47.5283 41.6394 46.9627 41.5187 46.5667 41.5643C46.3218 40.8169 46.5921 40.0665 46.5173 38.9926C46.7635 39.1845 47.3241 39.042 47.7216 39.0724Z" fill="white"/>
<path d="M45.3974 38.0882C45.4828 39.0423 45.5063 40.3107 45.3624 41.4845C45.0242 41.669 44.7727 41.4164 44.2604 41.5056C44.3469 40.3186 44.1383 39.5806 44.3976 38.2102C44.6102 38.1195 44.8823 38.0949 45.3974 38.0882Z" fill="white"/>
<path d="M40.9204 39.8203C40.9958 40.3994 40.7185 40.6289 40.5415 40.9597C40.6778 41.1637 40.8768 41.301 41.1506 41.3595C39.6683 41.2098 37.3322 42.1078 36.6262 40.6233C36.6771 40.2023 36.9063 39.9581 37.3137 39.8896C37.2353 39.5177 36.8654 39.4578 36.9933 38.8668C37.8984 37.5539 41.0312 39.1606 38.8184 39.9638C39.0147 40.2089 39.2706 40.3903 39.6298 40.4627C39.9162 40.4426 39.805 40.029 39.8164 39.7387C40.1848 39.7644 40.7014 39.6332 40.9204 39.8203ZM38.5121 39.6607C38.5319 39.289 38.5235 38.9486 38.0993 39.0515C37.874 39.3223 38.1006 39.7469 38.5121 39.6607ZM37.7204 40.1906C37.5753 40.8395 38.5665 41.1415 38.8322 40.6838C38.4593 40.5209 38.3025 40.1289 37.7204 40.1906Z" fill="white"/>
<path d="M31.1865 39.1842C32.767 38.7122 33.9483 39.3236 33.5185 40.5801C33.0819 41.856 30.4763 41.7167 30.2101 40.5407C29.9976 39.6032 30.4868 39.392 31.1865 39.1842ZM31.9231 41.0222C32.5266 41.0147 32.7431 39.9372 32.1942 39.4734C30.808 39.3066 31.2629 41.0286 31.9231 41.0222Z" fill="white"/>
<path d="M29.5636 38.1863C29.6428 38.4985 29.396 38.492 29.4753 38.8053L28.3732 38.8265L28.3613 38.2094C28.6417 38.0969 29.2952 37.9941 29.5636 38.1863Z" fill="white"/>
<path d="M29.4793 39.0111C29.4825 39.9752 29.5595 40.8903 29.4263 41.4817L28.4245 41.5009L28.3791 39.135C28.5909 38.9397 29.1122 39.051 29.4793 39.0111Z" fill="white"/>
<path d="M27.0587 38.2344C26.9041 39.3126 27.0043 40.5146 26.9195 41.4268C26.0729 41.4916 25.4535 41.2338 24.7155 41.4692C24.1056 41.239 23.7845 40.2791 24.0747 39.4234C24.5334 39.1936 25.0421 38.8575 25.672 39.0841C25.9589 38.9481 25.7057 38.497 25.8525 38.0517C26.3927 38.0999 26.5717 38.0307 27.0587 38.2344ZM25.6092 41.0404C26.0186 40.9101 25.9537 39.8752 25.78 39.4937C24.7853 39.2586 24.7442 41.1374 25.6092 41.0404Z" fill="white"/>
<path d="M22.7625 38.9342C22.9961 39.5596 22.8366 40.6038 22.9101 41.401C22.6349 41.4741 21.6843 41.7633 21.7039 41.2184C21.305 41.3784 20.6609 41.5493 20.203 41.3502C19.724 40.986 19.9216 39.8994 19.8589 39.0928C21.433 38.5411 20.836 40.0209 21.0968 40.9215L21.5978 40.9119C22.0096 40.6454 21.6757 39.6434 21.7626 39.0563C22.1641 39.0827 22.315 38.8615 22.7625 38.9342Z" fill="white"/>
<path d="M19.0594 39.2112C19.1064 39.6271 18.4374 39.3363 18.1616 39.4343L18.1873 40.7716C18.2224 41.1887 18.8457 40.9779 19.0969 41.1656C18.7862 41.7931 17.436 41.4176 17.0912 41.1013C16.8587 40.5913 17.245 39.6647 16.6567 39.3602C16.6544 38.9199 17.126 38.9489 16.9376 38.3258L18.0397 38.3046C18.2096 38.4383 18.0839 38.8862 18.254 39.0208C18.557 39.047 19.0311 38.8917 19.0594 39.2112Z" fill="white"/>
<path d="M14.4566 39.6081C14.8983 40.1162 16.0973 39.8166 15.9851 40.9166C15.6121 41.5894 13.7115 41.6734 13.0836 41.1781C13.1964 41.0534 13.1898 40.8118 13.1719 40.559C13.4088 40.895 14.1731 41.1303 14.6807 40.8389C14.1999 40.2759 12.979 40.6933 13.056 39.738C13.1205 38.9279 15.6797 38.3221 15.9594 39.5792C15.4823 39.6295 14.8475 39.3002 14.4566 39.6081Z" fill="white"/>
</svg>
