<?xml version="1.0" encoding="UTF-8" standalone="no"?>
<svg
   width="1683.5471"
   height="1558.9137"
   viewBox="0 0 1683.5471 1558.9137"
   version="1.1"
   xml:space="preserve"
   style="clip-rule:evenodd;fill-rule:evenodd;stroke-linejoin:round;stroke-miterlimit:2"
   id="svg14"
   sodipodi:docname="Schönherz (1).svg"
   inkscape:version="1.3.2 (091e20e, 2023-11-25)"
   xmlns:inkscape="http://www.inkscape.org/namespaces/inkscape"
   xmlns:sodipodi="http://sodipodi.sourceforge.net/DTD/sodipodi-0.dtd"
   xmlns="http://www.w3.org/2000/svg"
   xmlns:svg="http://www.w3.org/2000/svg"><defs
   id="defs14" /><sodipodi:namedview
   id="namedview14"
   pagecolor="#505050"
   bordercolor="#eeeeee"
   borderopacity="1"
   inkscape:showpageshadow="0"
   inkscape:pageopacity="0"
   inkscape:pagecheckerboard="0"
   inkscape:deskcolor="#505050"
   inkscape:zoom="0.0506"
   inkscape:cx="2500"
   inkscape:cy="770.75099"
   inkscape:window-width="1392"
   inkscape:window-height="841"
   inkscape:window-x="0"
   inkscape:window-y="496"
   inkscape:window-maximized="0"
   inkscape:current-layer="Schönherz" />
    <g
   id="Schönherz"
   transform="scale(4.16667)">
        <g
   transform="translate(144.87,219.696)"
   id="g1">
            <path
   d="M 0,-219.696 -70.236,-216.41 -73.212,-0.434 -32,0 -24.67,-14.775 1.486,-28.816 Z"
   style="fill:#163c65;fill-rule:nonzero"
   id="path1" />
        </g>
        <g
   transform="translate(97.3179,113.869)"
   id="g2">
            <path
   d="m 0,137.174 9.54,-19.228 -44.572,-0.417 3.335,-215.121 -1.087,0.04 -20.913,0.774 -4.745,220.188 -34.266,36.8 -2.81,74.556 89.749,-0.141 z"
   style="fill:#163c65"
   id="path2" />
        </g>
        <g
   transform="translate(176.978,24.3592)"
   id="g3">
            <path
   d="m 0,150.081 -2.332,-161.592 -19.256,0.108 -1.369,0.05 1.515,172.945 z"
   style="fill:#163c65"
   id="path3" />
        </g>
        <g
   transform="translate(152.732,277.508)"
   id="g4">
            <path
   d="m 0,-22.13 10.943,-13.131 10.942,14.226 -0.729,36.841 -22.25,-0.73 z m 45.595,5.107 10.942,-11.672 9.119,12.037 -0.729,35.016 -20.062,-0.729 z m 45.594,5.836 9.119,-10.578 8.39,10.213 0.365,33.193 -18.968,-0.365 z m 86.083,-1.094 6.931,11.307 -0.73,27.722 h -14.225 l -0.73,-29.181 z m 31.369,2.553 7.296,10.213 0.729,26.992 -15.32,0.366 -0.365,-26.993 z m 26.628,3.648 6.93,9.848 v 25.168 l -12.767,0.73 -0.365,-26.263 z m -277.703,-17.144 -5.836,93.378 169.395,0.55 1.068,-51.494 7.661,0.444 V -6.81 l 9.848,-10.942 9.119,10.578 -0.336,27.908 7.266,0.421 1.078,49.665 94.489,0.307 -2.553,-94.351 -65.413,-38.3 -146.998,-31.733 -57.388,29.181 z"
   style="fill:#163c65"
   id="path4" />
        </g>
        <g
   transform="translate(0,361.049)"
   id="g5">
            <rect
   x="0"
   y="0"
   width="404.05099"
   height="13.09"
   style="fill:#163c65"
   id="rect4" />
        </g>
        
        
        
        
        
        
        
        
        
    </g>
</svg>
