<svg width="100" height="32" viewBox="0 0 100 32" fill="none" xmlns="http://www.w3.org/2000/svg">
<path d="M12.0725 0L6.2195 0.273833L5.9715 18.2718L9.40583 18.308L10.0167 17.0768L12.1963 15.9067L12.0725 0Z" fill="white"/>
<path fill-rule="evenodd" clip-rule="evenodd" d="M8.1098 20.9203L8.9048 19.3179L5.19047 19.2832L5.46838 1.35641L5.3778 1.35975L3.63505 1.42425L3.23963 19.7733L0.38413 22.8399L0.149963 29.0529L7.62905 29.0412L8.1098 20.9203Z" fill="white"/>
<path fill-rule="evenodd" clip-rule="evenodd" d="M14.7482 14.5367L14.5538 1.07068L12.9492 1.07968L12.8351 1.08385L12.9613 15.4959L14.7482 14.5367Z" fill="white"/>
<path fill-rule="evenodd" clip-rule="evenodd" d="M12.7277 21.2815L13.6396 20.1873L14.5515 21.3728L14.4907 24.4428L12.6365 24.382L12.7277 21.2815ZM16.5273 21.7071L17.4391 20.7344L18.199 21.7375L18.1383 24.6555L16.4665 24.5948L16.5273 21.7071ZM20.3268 22.1934L21.0867 21.3119L21.7859 22.163L21.8163 24.9291L20.2356 24.8987L20.3268 22.1934ZM27.5004 22.1023L28.078 23.0445L28.0171 25.3547H26.8317L26.7709 22.9229L27.5004 22.1023ZM30.1145 22.315L30.7225 23.1661L30.7832 25.4154L29.5065 25.4459L29.4761 23.1965L30.1145 22.315ZM32.3335 22.619L32.911 23.4397V25.537L31.847 25.5978L31.8166 23.4093L32.3335 22.619ZM9.19153 21.1903L8.7052 28.9718L22.8215 29.0177L22.9105 24.7265L23.5489 24.7635V22.5582L24.3695 21.6463L25.1295 22.5278L25.1015 24.8535L25.707 24.8886L25.7968 29.0273L33.6709 29.0529L33.4581 21.1903L28.007 17.9987L15.7572 15.3542L10.9749 17.786L9.19153 21.1903Z" fill="white"/>
<path d="M33.6709 30.0874H0V31.1783H33.6709V30.0874Z" fill="white"/>
<path d="M39.9474 29.8786L40.5309 28.4624C41.1549 28.9 41.7687 29.1189 42.3727 29.1189C43.3005 29.1189 43.7646 28.7947 43.7646 28.1464C43.7646 27.8424 43.6551 27.5528 43.4363 27.2771C43.2175 27.0016 42.7667 26.6927 42.0839 26.3502C41.401 26.0078 40.9412 25.7263 40.7042 25.5053C40.467 25.2845 40.2847 25.0222 40.1571 24.7182C40.0294 24.4143 39.9657 24.078 39.9657 23.7093C39.9657 23.0203 40.2179 22.4491 40.7224 21.9951C41.2269 21.5413 41.8743 21.3143 42.6645 21.3143C43.6935 21.3143 44.4493 21.5068 44.9316 21.8918L44.4514 23.2533C43.8962 22.8563 43.3107 22.6578 42.6949 22.6578C42.33 22.6578 42.0475 22.754 41.8469 22.9463C41.6463 23.1389 41.546 23.3892 41.546 23.697C41.546 24.2076 42.1113 24.7385 43.2418 25.2896C43.8375 25.5813 44.267 25.8498 44.5304 26.095C44.7937 26.3402 44.9944 26.6259 45.1321 26.9519C45.2699 27.2782 45.3388 27.6419 45.3388 28.043C45.3388 28.7643 45.054 29.3579 44.4849 29.8239C43.9155 30.29 43.1526 30.5229 42.1964 30.5229C41.3657 30.5229 40.616 30.3081 39.9474 29.8786Z" fill="white"/>
<path d="M51.7513 24.3778L51.101 25.5144C50.7443 25.1781 50.2661 25.0099 49.6665 25.0099C49.091 25.0099 48.6362 25.2014 48.3019 25.5843C47.9676 25.9673 47.8005 26.4971 47.8005 27.1738C47.8005 28.5393 48.4508 29.2222 49.7515 29.2222C50.3147 29.2222 50.8112 29.0358 51.2406 28.6629L51.7999 29.8603C51.3582 30.136 50.9721 30.3101 50.642 30.3831C50.3118 30.456 49.9217 30.4925 49.472 30.4925C48.467 30.4925 47.6738 30.1998 47.0924 29.6142C46.5109 29.0287 46.22 28.2153 46.22 27.1738C46.22 26.1487 46.5382 25.3199 47.1744 24.6878C47.8105 24.0557 48.6777 23.7396 49.7759 23.7396C50.5336 23.7396 51.192 23.9523 51.7513 24.3778Z" fill="white"/>
<path d="M57.2276 30.3709V26.3593C57.2276 25.9582 57.102 25.636 56.8509 25.3929C56.5996 25.1498 56.2714 25.0282 55.8661 25.0282C55.6148 25.0282 55.3616 25.0961 55.1064 25.2318C54.8511 25.3676 54.6689 25.5226 54.5594 25.6968V30.3709H53.0154V21.4359L54.5594 21.0713V24.2745C54.9523 23.9179 55.4934 23.7396 56.1823 23.7396C56.9967 23.7396 57.6289 23.9655 58.0788 24.4173C58.5283 24.8692 58.7534 25.5165 58.7534 26.3593V30.3709H57.2276Z" fill="white"/>
<path d="M65.0929 21.2536C65.3319 21.2536 65.5355 21.3387 65.7037 21.5089C65.8719 21.6791 65.9559 21.8838 65.9559 22.1229C65.9559 22.3619 65.8719 22.5655 65.7037 22.7337C65.5355 22.9019 65.3319 22.9859 65.0929 22.9859C64.8537 22.9859 64.6492 22.9019 64.479 22.7337C64.3089 22.5655 64.2236 22.3619 64.2236 22.1229C64.2236 21.8838 64.3089 21.6791 64.479 21.5089C64.6492 21.3387 64.8537 21.2536 65.0929 21.2536ZM61.5493 27.1009C61.5493 28.5354 62.066 29.2525 63.0992 29.2525C63.5733 29.2525 63.9491 29.0662 64.2267 28.6934C64.5042 28.3206 64.6431 27.7899 64.6431 27.1009C64.6431 25.6867 64.1285 24.9796 63.0992 24.9796C62.6252 24.9796 62.2482 25.166 61.9687 25.5388C61.689 25.9116 61.5493 26.4323 61.5493 27.1009ZM61.3243 21.2536C61.5634 21.2536 61.767 21.3387 61.9351 21.5089C62.1034 21.6791 62.1875 21.8838 62.1875 22.1229C62.1875 22.3619 62.1034 22.5655 61.9351 22.7337C61.767 22.9019 61.5634 22.9859 61.3243 22.9859C61.0853 22.9859 60.8807 22.9019 60.7105 22.7337C60.5403 22.5655 60.4551 22.3619 60.4551 22.1229C60.4551 21.8838 60.5403 21.6791 60.7105 21.5089C60.8807 21.3387 61.0853 21.2536 61.3243 21.2536ZM59.9689 27.1009C59.9689 26.1081 60.2555 25.2998 60.829 24.6756C61.4024 24.0517 62.1591 23.7396 63.0992 23.7396C64.0878 23.7396 64.8557 24.0395 65.4029 24.6392C65.9499 25.2389 66.2234 26.0595 66.2234 27.1009C66.2234 28.1383 65.9447 28.9629 65.3877 29.5748C64.8305 30.1866 64.0676 30.4925 63.0992 30.4925C62.1105 30.4925 61.3415 30.1836 60.7925 29.5655C60.2435 28.9477 59.9689 28.1261 59.9689 27.1009Z" fill="white"/>
<path d="M71.627 30.3709V26.6085C71.627 26.0533 71.5207 25.6481 71.3079 25.3929C71.0952 25.1375 70.7477 25.0099 70.2655 25.0099C70.0427 25.0099 69.8046 25.0728 69.5514 25.1984C69.2981 25.324 69.1005 25.4801 68.9587 25.6664V30.3709H67.4391V23.8612H68.5332L68.8128 24.469C69.2261 23.9828 69.836 23.7396 70.6425 23.7396C71.4164 23.7396 72.0272 23.9716 72.4749 24.4355C72.9227 24.8996 73.1465 25.5469 73.1465 26.3775V30.3709H71.627Z" fill="white"/>
<path d="M78.9999 30.3709V26.3593C78.9999 25.9582 78.8742 25.636 78.6231 25.3929C78.3717 25.1498 78.0435 25.0282 77.6384 25.0282C77.3871 25.0282 77.1339 25.0961 76.8786 25.2318C76.6233 25.3676 76.441 25.5226 76.3316 25.6968V30.3709H74.7877V21.4359L76.3316 21.0713V24.2745C76.7246 23.9179 77.2656 23.7396 77.9544 23.7396C78.769 23.7396 79.4011 23.9655 79.8509 24.4173C80.3006 24.8692 80.5256 25.5165 80.5256 26.3593V30.3709H78.9999Z" fill="white"/>
<path d="M83.3825 26.4383H86.5796C86.4743 25.4862 85.9475 25.0099 84.9994 25.0099C84.1321 25.0099 83.5932 25.4862 83.3825 26.4383ZM87.9777 27.581H83.3278C83.3561 28.0998 83.5345 28.5029 83.8627 28.7907C84.191 29.0784 84.6325 29.2222 85.1877 29.2222C85.8807 29.2222 86.4075 29.0418 86.7681 28.6812L87.3576 29.8422C86.8228 30.2758 86.0245 30.4925 84.9629 30.4925C83.97 30.4925 83.185 30.2018 82.6075 29.6203C82.0301 29.0388 81.7415 28.2275 81.7415 27.186C81.7415 26.1608 82.0585 25.3301 82.6927 24.6938C83.3268 24.0578 84.0876 23.7396 84.975 23.7396C85.9192 23.7396 86.6769 24.0213 87.2484 24.5845C87.8196 25.1478 88.1054 25.865 88.1054 26.7362C88.1054 26.9227 88.0628 27.2042 87.9777 27.581Z" fill="white"/>
<path d="M93.0834 25.2774C92.8119 25.0991 92.5141 25.0099 92.19 25.0099C91.8374 25.0099 91.5244 25.1701 91.2508 25.4902C90.9775 25.8103 90.8407 26.2013 90.8407 26.6633V30.3709H89.3212V23.8612H90.8407V24.4568C91.2661 23.9788 91.8314 23.7396 92.5364 23.7396C93.0552 23.7396 93.4522 23.8186 93.7278 23.9767L93.0834 25.2774Z" fill="white"/>
<path d="M94.2134 30.3709V29.8543L97.745 25.1862H94.2743V23.8612H99.9635V24.3961L96.5596 29.0459H99.9999V30.3709H94.2134Z" fill="white"/>
</svg>
