<svg width="142" height="31" viewBox="0 0 142 31" fill="none" xmlns="http://www.w3.org/2000/svg">
<path d="M45.9708 14.4594C44.6724 15.5593 42.9309 15.5746 42.4421 15.5746C41.8005 15.5746 39.7382 15.544 38.2413 13.9705C38.058 13.7718 37.8593 13.5124 37.7219 13.2679L39.4175 12.0917C39.8911 12.7943 40.777 13.7109 42.7629 13.7109C42.8546 13.7109 43.2363 13.7109 43.5572 13.6346C43.7863 13.5886 44.8403 13.2984 44.8403 12.2902C44.8403 12.1833 44.8251 11.8931 44.6418 11.6486C44.2751 11.1598 43.2976 11.0223 42.7629 10.9002L41.4796 10.6098C40.9299 10.4877 40.3339 10.3655 39.8451 10.1057C39.3411 9.84609 38.3023 9.15851 38.3023 7.60052C38.3023 7.35619 38.3329 6.65354 38.7148 6.01178C39.2035 5.18697 40.3799 4.23979 42.5642 4.23979C43.5267 4.23979 45.4208 4.3925 46.9179 6.42428L45.2529 7.6616C44.9169 7.12693 44.153 6.05759 42.4573 6.05759C42.3504 6.05759 40.991 6.04252 40.5479 6.8826C40.4561 7.05058 40.4258 7.20328 40.4258 7.37146C40.4258 7.5547 40.4716 7.70741 40.5632 7.86032C40.8228 8.30316 41.4185 8.4406 42.4115 8.65459L43.5267 8.89891C44.5502 9.12817 45.6806 9.43358 46.3985 10.2739C46.704 10.6098 47.0248 11.0987 47.0248 12.0917C47.0248 13.0692 46.7192 13.8178 45.9708 14.4594Z" fill="white"/>
<path d="M48.5521 7.66162H50.3699V15.2995H48.5521V7.66162ZM48.5521 4.62178H50.3699V6.47012H48.5521V4.62178Z" fill="white"/>
<path d="M61.9795 15.2996V10.6252C61.9795 10.3349 61.9184 9.14335 60.6963 9.14335C60.406 9.14335 59.7492 9.25044 59.3368 9.92255C58.9854 10.4725 58.9702 11.0988 58.9702 11.7098V15.2996H57.1524V11.0224C57.1524 10.8543 57.1371 10.6863 57.1371 10.5183C57.1371 10.3656 57.1371 9.83093 56.7246 9.44896C56.4192 9.17389 56.0372 9.15862 55.8998 9.15862C55.7163 9.15862 55.3193 9.20463 54.9373 9.52532C54.1889 10.1669 54.1736 11.2362 54.1736 12.0916V15.2996H52.3403V7.66171H54.1736L54.1889 8.51706C54.311 8.34908 54.3568 8.30327 54.4332 8.24219C54.693 7.99786 55.5178 7.43265 56.5871 7.43265C57.4578 7.43265 58.2828 7.82968 58.7106 8.59361C58.848 8.42544 59.0007 8.21165 59.4132 7.93658C59.7339 7.72279 60.2686 7.43265 61.1699 7.43265C62.3309 7.43265 63.3697 7.93658 63.6904 9.12808C63.782 9.4795 63.7974 9.78492 63.7974 10.4725V15.2996H61.9795Z" fill="white"/>
<path d="M69.1587 9.08247C68.9906 9.08247 68.5325 9.11301 68.1199 9.37261C67.7227 9.63241 67.188 10.2587 67.188 11.4044C67.188 11.7711 67.2188 12.0918 67.3409 12.443C67.4631 12.8097 67.9978 13.8485 69.2504 13.8485C70.6406 13.8485 71.2667 12.6264 71.2209 11.4197C71.1903 10.2282 70.503 9.08247 69.1587 9.08247ZM72.8249 13.1611C72.5195 13.9401 71.5265 15.5288 69.2504 15.5288C68.9297 15.5288 68.2727 15.5136 67.5242 15.1774C66.7299 14.8262 65.2786 13.7569 65.2786 11.4502C65.2786 10.6252 65.5079 10.0142 65.6148 9.7393C65.9355 8.97557 66.9132 7.43265 69.1893 7.43265C69.4794 7.43265 70.1517 7.46319 70.8696 7.78407C71.6945 8.13529 73.1152 9.15882 73.1305 11.4502C73.1305 11.7251 73.1152 12.443 72.8249 13.1611Z" fill="white"/>
<path d="M79.4847 15.2996V11.4042C79.4847 10.8084 79.4847 10.5183 79.4083 10.228C79.1945 9.34207 78.507 9.2199 78.1405 9.2199C77.9419 9.2199 77.56 9.25044 77.178 9.57113C76.6283 10.0294 76.4601 10.671 76.4601 11.9847V15.2996H74.6118V7.66171H76.4601V8.56287C76.4906 8.51706 76.6433 8.31854 76.796 8.16583C77.514 7.49373 78.553 7.43265 78.8126 7.43265C79.9432 7.43265 80.5998 8.01293 80.8442 8.36435C81.333 9.067 81.2872 10.0294 81.2872 10.8084V15.2996H79.4847Z" fill="white"/>
<path d="M87.4736 14.3219C87.1985 15.2689 86.8015 16.8882 86.0836 17.4686C85.61 17.8506 85.1211 17.927 84.5254 17.927C83.9449 17.927 83.7311 17.8812 83.4408 17.8201V16.2313C84.1739 16.3232 84.5864 16.2313 84.8615 16.0023C85.0906 15.7885 85.1517 15.5592 85.1822 15.4523L82.4174 7.66174H84.3877L86.0986 13.3595L87.5349 7.66174H89.4135L87.4736 14.3219Z" fill="white"/>
<path d="M90.5437 7.66162H92.3615V15.2995H90.5437V7.66162ZM90.5437 4.62178H92.3615V6.47012H90.5437V4.62178Z" fill="white"/>
<path d="M105.621 15.2996L102.749 10.2279L100.992 12.2444V15.2996H98.9909V4.51474H100.992V9.4642L105.315 4.51474H107.683L104.154 8.57811L107.927 15.2996H105.621Z" fill="white"/>
<path d="M112.678 6.54653H111.303L112.067 4.51474H114.327L112.678 6.54653ZM113.426 11.496C113.121 11.6487 112.723 11.8014 111.975 11.9236C111.563 12.0001 111.12 12.0154 110.738 12.2444C110.478 12.4126 110.295 12.6722 110.295 13.0084C110.295 13.4665 110.631 13.9093 111.547 13.9093C112.555 13.9093 113.151 13.3901 113.319 13.0387C113.442 12.7942 113.426 12.5804 113.426 12.3361V11.496ZM113.426 15.2996L113.38 14.7038C113.09 14.9483 112.83 15.0705 112.678 15.1316C112.173 15.3608 111.7 15.4828 111.135 15.4828C110.768 15.4828 109.393 15.4372 108.691 14.3066C108.568 14.1081 108.339 13.6956 108.355 13.0845C108.355 12.657 108.462 11.8014 109.393 11.1751C110.02 10.7473 110.615 10.6557 111.318 10.5183C112.449 10.2892 112.861 10.1976 113.426 9.99888C113.426 9.80036 113.411 9.55583 113.319 9.37258C113.166 9.08244 112.785 8.85318 112.112 8.85318C111.41 8.85318 110.967 9.06697 110.768 9.32677C110.554 9.58657 110.57 9.89198 110.57 9.99888L108.706 9.89198C108.721 9.55583 108.782 8.74629 109.531 8.13526C110.004 7.73803 110.722 7.43262 112.051 7.43262C113.304 7.43262 114.037 7.69222 114.511 8.02837C114.832 8.25743 115 8.51723 115.061 8.63939C115.259 9.03643 115.259 9.5711 115.259 9.99888V14.0622C115.259 14.6427 115.29 14.8107 115.595 15.2996H113.426Z" fill="white"/>
<path d="M119.124 10.7779C118.987 11.2057 118.987 11.5877 118.987 12.0305V15.2996H117.214V7.66175H118.987V8.74616C119.109 8.5171 119.261 8.28804 119.445 8.12007C120.056 7.52412 121.049 7.49358 121.262 7.49358H121.415V9.37265C121.033 9.37265 119.567 9.37265 119.124 10.7779Z" fill="white"/>
<path d="M126.059 9.08247C125.89 9.08247 125.432 9.11301 125.02 9.37261C124.623 9.63241 124.088 10.2587 124.088 11.4044C124.088 11.7711 124.119 12.0918 124.241 12.443C124.363 12.8097 124.898 13.8485 126.15 13.8485C127.54 13.8485 128.167 12.6264 128.121 11.4197C128.09 10.2282 127.403 9.08247 126.059 9.08247ZM129.725 13.1611C129.419 13.9401 128.426 15.5288 126.15 15.5288C125.83 15.5288 125.173 15.5136 124.424 15.1774C123.63 14.8262 122.179 13.7569 122.179 11.4502C122.179 10.6252 122.408 10.0142 122.515 9.7393C122.835 8.97557 123.813 7.43265 126.089 7.43265C126.379 7.43265 127.052 7.46319 127.77 7.78407C128.594 8.13529 130.015 9.15882 130.03 11.4502C130.03 11.7251 130.015 12.443 129.725 13.1611Z" fill="white"/>
<path d="M133.406 4.51474H131.542V15.2996H133.406V4.51474Z" fill="white"/>
<path d="M139.608 14.3219C139.333 15.2689 138.936 16.8882 138.218 17.4686C137.744 17.8506 137.255 17.927 136.66 17.927C136.079 17.927 135.865 17.8812 135.575 17.8201V16.2313C136.308 16.3232 136.721 16.2313 136.996 16.0023C137.225 15.7885 137.286 15.5592 137.316 15.4523L134.552 7.66174H136.522L138.233 13.3595L139.669 7.66174H141.548L139.608 14.3219Z" fill="white"/>
<path d="M42.0997 25.3541C41.4492 25.9051 40.5766 25.9126 40.3317 25.9126C40.0104 25.9126 38.9771 25.8973 38.2273 25.1092C38.1353 25.0096 38.0359 24.8795 37.9671 24.757L38.8165 24.168C39.0537 24.5198 39.4975 24.9789 40.4925 24.9789C40.5383 24.9789 40.7297 24.9789 40.8905 24.9408C41.0052 24.9178 41.5333 24.7722 41.5333 24.2673C41.5333 24.2138 41.5255 24.0684 41.4339 23.9459C41.2501 23.7009 40.7604 23.6321 40.4925 23.571L39.8496 23.4255C39.5741 23.3644 39.2756 23.3029 39.0307 23.173C38.7782 23.0429 38.2578 22.6984 38.2578 21.9178C38.2578 21.7955 38.2731 21.4433 38.4645 21.1218C38.7094 20.7087 39.2986 20.2343 40.3931 20.2343C40.8753 20.2343 41.824 20.3107 42.5743 21.3284L41.7399 21.9484C41.5716 21.6806 41.189 21.1448 40.3394 21.1448C40.2859 21.1448 39.6046 21.1372 39.3829 21.5581C39.3369 21.6424 39.3216 21.7189 39.3216 21.803C39.3216 21.895 39.3444 21.9714 39.3904 22.0479C39.5205 22.2699 39.819 22.3387 40.3164 22.446L40.8753 22.5683C41.3879 22.6831 41.9543 22.8363 42.3139 23.2571C42.467 23.4255 42.6278 23.6704 42.6278 24.168C42.6278 24.6576 42.4747 25.0326 42.0997 25.3541Z" fill="white"/>
<path d="M46.4541 25.775V24.9484L49.4083 21.2751H46.7066V20.372H50.671V21.2291L47.8316 24.8643H50.671V25.775H46.4541Z" fill="white"/>
<path d="M56.7322 21.3437L55.9822 23.8311H57.4745L56.7322 21.3437ZM58.0562 25.775L57.7425 24.7189H55.7144L55.4007 25.775H54.3139L56.143 20.372H57.2909L59.1353 25.775H58.0562Z" fill="white"/>
<path d="M66.5206 25.775L65.0817 23.2341L64.2018 24.2444V25.775H63.1991V20.372H64.2018V22.8516L66.3674 20.372H67.5536L65.7858 22.4077L67.6762 25.775H66.5206Z" fill="white"/>
<path d="M74.9999 25.775L73.5611 23.2341L72.6811 24.2444V25.775H71.6784V20.372H72.6811V22.8516L74.8468 20.372H76.0329L74.2651 22.4077L76.1553 25.775H74.9999Z" fill="white"/>
<path d="M83.7551 21.8719C83.4719 21.4128 83.0434 21.1601 82.5 21.1601C82.1632 21.1601 81.9183 21.2672 81.8112 21.321C81.4286 21.5276 80.9541 22.0327 80.9541 23.0428C80.9541 23.2494 80.9616 24.2444 81.7192 24.7418C82.0486 24.9562 82.3776 24.9714 82.5152 24.9714C82.6223 24.9714 82.8672 24.9637 83.1352 24.8413C83.5332 24.6577 84.0536 24.1984 84.0764 23.1806C84.0841 22.7366 83.9998 22.2622 83.7551 21.8719ZM84.3443 25.1398C84.222 25.2699 83.908 25.5836 83.4259 25.7597C83.2575 25.8208 82.9438 25.9126 82.4847 25.9126C81.7192 25.9126 81.1377 25.6602 80.6326 25.0785C80.1275 24.5044 79.9133 23.8311 79.9133 23.081C79.9133 22.9051 79.9208 22.4918 80.0739 22.0327C80.4259 20.9535 81.3521 20.2342 82.5077 20.2342C83.5485 20.2342 84.1682 20.8006 84.4207 21.0911C84.7041 21.4128 85.1019 22.0403 85.0944 23.0735C85.0944 23.4103 85.0561 24.3667 84.3443 25.1398Z" fill="white"/>
<path d="M89.4488 25.775V20.372H90.4668V24.8566H92.6096V25.775H89.4488Z" fill="white"/>
<path d="M96.8111 25.775V20.372H97.8291V24.8566H99.9719V25.775H96.8111Z" fill="white"/>
<path d="M106.194 19.8436H105.513L105.918 18.9254H107.02L106.194 19.8436ZM104.143 25.7748V20.3718H107.984V21.2749H105.137V22.5451H107.747V23.4176H105.137V24.8641H108.176V25.7748H104.143Z" fill="white"/>
<path d="M116.081 25.775L116.074 25.3158C115.638 25.7212 115.193 25.9126 114.589 25.9126C114.26 25.9126 113.51 25.8668 112.859 25.2316C112.546 24.9178 112.056 24.2443 112.056 23.127C112.056 22.4382 112.262 21.7189 112.691 21.1755C112.936 20.8693 113.579 20.2343 114.673 20.2343C114.826 20.2343 115.171 20.2496 115.561 20.3949C115.913 20.5326 116.594 20.8923 116.946 21.826L115.982 22.2088C115.89 21.9484 115.607 21.1448 114.666 21.1448C114.482 21.1448 114.053 21.1755 113.694 21.5351C113.433 21.803 113.158 22.2621 113.158 23.0964C113.158 23.3182 113.158 24.1295 113.778 24.6499C114.046 24.8718 114.344 24.9561 114.689 24.9561C115.224 24.9561 115.699 24.6959 115.905 24.1908C115.951 24.0837 115.99 23.9534 116.02 23.7087H114.673V22.8208H116.946V25.775H116.081Z" fill="white"/>
<path d="M122.426 20.372H121.431V25.775H122.426V20.372Z" fill="white"/>
<path d="M131.303 24.6729C131.127 25.2161 130.507 25.9126 129.184 25.9126C128.548 25.9126 127.913 25.7595 127.469 25.2699C127.4 25.2009 127.217 24.9789 127.125 24.6882C127.041 24.4127 127.041 24.1601 127.041 23.5863V20.372H128.059V23.6934C128.059 24.0147 128.059 24.1295 128.112 24.2902C128.211 24.6117 128.502 24.9331 129.222 24.9331C129.352 24.9331 130.094 24.9331 130.316 24.3209C130.377 24.1448 130.385 23.9994 130.385 23.6397V20.372H131.395V23.4868C131.395 24.1067 131.403 24.3667 131.303 24.6729Z" fill="white"/>
<path d="M140.005 25.775L140.104 21.3362L138.933 25.775H138.023L136.852 21.3362L136.951 25.775H135.964V20.372H137.433L138.489 24.3822L139.53 20.372H140.992V25.775H140.005Z" fill="white"/>
<path d="M15.4521 0.178268C7.18113 0.178268 0.452148 6.90725 0.452148 15.1782C0.452148 23.4493 7.18113 30.1783 15.4521 30.1783C23.7232 30.1783 30.4522 23.4493 30.4522 15.1782C30.4522 6.90725 23.7232 0.178268 15.4521 0.178268ZM15.4521 1.78545C22.8488 1.78545 28.845 7.78164 28.845 15.1782C28.845 22.5749 22.8488 28.5711 15.4521 28.5711C8.05552 28.5711 2.05933 22.5749 2.05933 15.1782C2.05933 7.78164 8.05552 1.78545 15.4521 1.78545Z" fill="white"/>
<path d="M11.1077 7.55959C12.9272 7.55959 14.4077 9.04004 14.4077 10.8596C14.4077 12.6792 12.9272 14.1597 11.1077 14.1597C9.28807 14.1597 7.80762 12.6792 7.80762 10.8596C7.80762 9.04004 9.28807 7.55959 11.1077 7.55959ZM11.1077 9.16677C10.1728 9.16677 9.4148 9.92475 9.4148 10.8596C9.4148 11.7945 10.1728 12.5525 11.1077 12.5525C12.0425 12.5525 12.8005 11.7945 12.8005 10.8596C12.8005 9.92475 12.0425 9.16677 11.1077 9.16677ZM28.4713 11.6325H13.6309C13.2039 11.6325 12.858 11.2866 12.858 10.8598C12.858 10.4328 13.2039 10.087 13.6309 10.087H28.4713C28.8981 10.087 29.2442 10.4328 29.2442 10.8598C29.2442 11.2866 28.8981 11.6325 28.4713 11.6325Z" fill="white"/>
<path d="M16.8731 20.5655H2.90707C2.52947 20.5655 2.22327 20.2595 2.22327 19.8819C2.22327 19.5041 2.52947 19.1981 2.90707 19.1981H16.8731C17.2507 19.1981 17.5567 19.5041 17.5567 19.8819C17.5567 20.2595 17.2507 20.5655 16.8731 20.5655Z" fill="white"/>
<path d="M19.3777 16.5161C17.5581 16.5161 16.0776 17.9963 16.0776 19.8161C16.0776 21.6355 17.5581 23.1159 19.3777 23.1159C21.1973 23.1159 22.6777 21.6355 22.6777 19.8161C22.6777 17.9963 21.1973 16.5161 19.3777 16.5161ZM19.3777 18.1232C20.3126 18.1232 21.0705 18.881 21.0705 19.8161C21.0705 20.751 20.3126 21.509 19.3777 21.509C18.4428 21.509 17.6848 20.751 17.6848 19.8161C17.6848 18.881 18.4428 18.1232 19.3777 18.1232Z" fill="white"/>
</svg>
