<svg width="112" height="31" viewBox="0 0 112 31" fill="none" xmlns="http://www.w3.org/2000/svg">
<path d="M46.1975 17.1982C45.1338 17.1982 44.1706 16.7677 43.4728 16.0712C43.2627 15.8617 43.0767 15.6278 42.9191 15.3745C42.5522 14.784 42.3401 14.0872 42.3401 13.3409C42.3401 12.5969 42.5507 11.9022 42.9156 11.313C43.0734 11.0582 43.2599 10.8231 43.4708 10.6124C44.1688 9.91488 45.1328 9.48347 46.1975 9.48347C47.2616 9.48347 48.225 9.91434 48.9229 10.6112C49.1351 10.8229 49.3226 11.0593 49.481 11.3156C49.8232 11.8691 50.0292 12.5155 50.0526 13.2082C50.0541 13.2522 50.0548 13.2965 50.0548 13.3409C50.0548 13.3852 50.0541 13.4294 50.0526 13.4734C50.0291 14.1701 49.8208 14.8199 49.4752 15.3755C49.318 15.6283 49.1323 15.8616 48.9227 16.0708C48.2248 16.7674 47.2614 17.1982 46.1975 17.1982ZM50.0602 0.178268V8.4679C50.0577 8.46595 50.0552 8.4639 50.0526 8.46195C48.9923 7.62492 47.6532 7.12532 46.1975 7.12532C44.4819 7.12532 42.9283 7.81928 41.8021 8.94154C41.462 9.28048 41.1609 9.65854 40.9059 10.0684C40.3489 10.9641 40.013 12.0115 39.9745 13.1345V13.5584C40.013 14.6799 40.3481 15.7261 40.9038 16.6211C41.1583 17.0309 41.4591 17.4091 41.7988 17.7482C42.9253 18.8725 44.4802 19.5676 46.1975 19.5676C47.6532 19.5676 48.9923 19.068 50.0526 18.231C50.0552 18.2291 50.0577 18.2271 50.0602 18.2251C50.2483 18.0761 50.4276 17.9166 50.5971 17.7472C50.9359 17.409 51.236 17.0318 51.4899 16.6232C52.0716 15.6872 52.412 14.5856 52.4239 13.4052V11.8642H52.4205V7.11029H52.4174L52.4182 7.10949H52.4333V0.178268H50.0602Z" fill="white"/>
<path d="M84.1316 7.16086H81.7766V19.5705H84.1316V7.16086Z" fill="white"/>
<path d="M111.066 10.0606C110.811 9.64769 110.508 9.26697 110.167 8.92581C109.995 8.75429 109.813 8.59283 109.622 8.44221C108.562 7.60527 107.223 7.10567 105.767 7.10567C104.313 7.10567 102.975 7.6042 101.915 8.4399C101.723 8.59167 101.539 8.75456 101.366 8.9275C101.026 9.26732 100.725 9.64609 100.471 10.0569C99.9167 10.9508 99.5827 11.9953 99.5443 13.1149V13.5584C99.6004 15.1935 100.287 16.6686 101.369 17.7481C101.541 17.9203 101.724 18.0823 101.915 18.2333V13.5353C101.912 13.4681 101.91 13.4004 101.91 13.3324C101.91 13.2644 101.912 13.1967 101.915 13.1295C101.95 12.4622 102.154 11.8398 102.485 11.3046C102.643 11.0498 102.83 10.8148 103.041 10.604C103.739 9.90643 104.703 9.47511 105.767 9.47511C106.831 9.47511 107.795 9.9059 108.493 10.6027C108.705 10.8145 108.892 11.0508 109.051 11.3073C109.393 11.8607 109.599 12.507 109.622 13.1998C109.624 13.2438 109.625 13.2881 109.625 13.3324C109.625 13.3768 109.624 13.421 109.622 13.465V19.5621H111.994V13.2681C111.982 12.0922 111.644 10.9944 111.066 10.0606Z" fill="white"/>
<path d="M56.4692 12.1488C56.6595 11.5637 56.9859 11.0402 57.4111 10.6152C58.1091 9.91777 59.0731 9.48636 60.1378 9.48636C61.8511 9.48636 63.3035 10.6034 63.8065 12.1488H56.4692ZM66.25 12.1488C65.6927 9.28151 63.168 7.117 60.1378 7.117C58.4193 7.117 56.8634 7.81311 55.7368 8.93883C54.8767 9.79809 54.2668 10.9076 54.0257 12.1488C53.9639 12.4666 53.9262 12.7931 53.9148 13.1262V13.5613C53.9262 13.8939 53.9637 14.2197 54.0253 14.5371C54.5819 17.4052 57.107 19.5705 60.1378 19.5705C61.8555 19.5705 63.4108 18.875 64.5374 17.7501L62.863 16.0737C62.1651 16.7703 61.2018 17.2011 60.1378 17.2011C58.4239 17.2011 56.9711 16.0834 56.4686 14.5371H66.2503C66.3214 14.1712 66.3604 13.7938 66.3642 13.4081V13.2794C66.3604 12.8931 66.3213 12.5153 66.25 12.1488Z" fill="white"/>
<path d="M91.8353 17.186C90.7717 17.186 89.8085 16.7554 89.1106 16.059C88.9005 15.8494 88.7145 15.6156 88.5569 15.3623C88.2234 14.8257 88.0178 14.2012 87.9833 13.5315C87.9797 13.4644 87.978 13.3966 87.978 13.3286C87.978 13.2606 87.9797 13.1929 87.9833 13.1257C88.0178 12.4585 88.2219 11.8361 88.5534 11.3008C88.7112 11.046 88.8977 10.8109 89.1086 10.6001C89.8066 9.90269 90.7706 9.47128 91.8353 9.47128C92.8994 9.47128 93.8629 9.90216 94.5607 10.599C94.7729 10.8108 94.9605 11.0471 95.1189 11.3034C95.461 11.8569 95.6671 12.5033 95.6904 13.196C95.6919 13.24 95.6927 13.2842 95.6927 13.3286C95.6927 13.3731 95.6919 13.4172 95.6904 13.4613C95.667 14.1579 95.4586 14.8078 95.113 15.3633C94.9558 15.6161 94.7701 15.8493 94.5605 16.0586C93.8626 16.7552 92.8993 17.186 91.8353 17.186ZM97.1343 10.0568C96.8788 9.64395 96.5764 9.26323 96.2347 8.92207C96.0629 8.75046 95.8811 8.58909 95.6904 8.43847C94.6301 7.60144 93.291 7.10184 91.8353 7.10184C90.381 7.10184 89.043 7.60046 87.9833 8.43607C87.7908 8.58784 87.6074 8.75073 87.4343 8.92376C87.0942 9.26349 86.7932 9.64235 86.5387 10.0531C86.0654 10.8169 85.7526 11.6906 85.6477 12.6272C85.6297 12.7867 85.6179 12.9481 85.6123 13.111V13.5462C85.6508 14.6677 85.9859 15.714 86.5416 16.6089C86.7961 17.0188 87.0969 17.3969 87.4366 17.736C87.6091 17.9082 87.7917 18.0702 87.9833 18.2212C89.043 19.0568 90.381 19.5554 91.8353 19.5554C93.291 19.5554 94.6301 19.0559 95.6904 18.2188C95.8812 18.0682 96.0631 17.9066 96.2349 17.735C96.5737 17.3968 96.8738 17.0197 97.1277 16.611C97.7095 15.675 98.0498 14.5734 98.0617 13.3931V13.2643C98.0499 12.0884 97.712 10.9905 97.1343 10.0568Z" fill="white"/>
<path d="M98.0628 23.9515C98.0628 25.1562 97.7207 26.2809 97.1284 27.2339C96.8744 27.6425 96.5744 28.0196 96.2356 28.3579C96.0638 28.5295 95.8819 28.6911 95.6911 28.8417C94.6307 29.6787 93.2917 30.1783 91.836 30.1783C90.3817 30.1783 89.0437 29.6796 87.984 28.844C87.7923 28.6931 87.6098 28.531 87.4373 28.3588L87.984 27.8113L89.1113 26.6819C89.8091 27.3783 90.7723 27.8088 91.836 27.8088C92.9 27.8088 93.8633 27.378 94.5612 26.6814C94.7708 26.4722 94.9564 26.239 95.1137 25.9862C95.4593 25.4306 95.6677 24.7807 95.6911 24.0841C95.6926 24.0401 95.6934 23.9959 95.6934 23.9515C95.6934 23.9071 95.6926 23.8629 95.6911 23.8189C95.6677 23.1261 95.4617 22.4797 95.1195 21.9263C94.9611 21.6699 94.7735 21.4336 94.5614 21.2218L95.6911 20.09L96.2353 19.5449C96.5771 19.8861 96.8795 20.2668 97.135 20.6797C97.7232 21.6304 98.0628 22.7513 98.0628 23.9515Z" fill="white"/>
<path d="M24.5598 17.7501C23.4332 18.875 21.8779 19.5705 20.1602 19.5705C18.4429 19.5705 16.888 18.8754 15.7615 17.7511C14.6798 16.6716 13.9933 15.1965 13.9371 13.5613V13.1262C13.9932 11.4922 14.6788 10.018 15.7591 8.93879C16.8858 7.81306 18.4416 7.11696 20.1602 7.11696C21.8777 7.11696 23.433 7.81244 24.5595 8.9371L22.8855 10.6141C22.1876 9.91719 21.2243 9.4864 20.1602 9.4864C19.0954 9.4864 18.1314 9.91781 17.4335 10.6152C16.735 11.3134 16.3028 12.2781 16.3028 13.3437C16.3028 14.4103 16.7357 15.3758 17.4355 16.0741C18.1332 16.7705 19.0965 17.2011 20.1602 17.2011C21.2241 17.2011 22.1875 16.7703 22.8853 16.0737L24.5598 17.7501Z" fill="white"/>
<path d="M36.6657 8.93425C36.4935 8.76221 36.3113 8.60039 36.12 8.44941C35.06 7.61318 33.7215 7.11402 32.2664 7.11402C30.8121 7.11402 29.4741 7.61265 28.4143 8.44834V0.178268H26.0411V7.8817L26.0434 7.88392V13.5584C26.0996 15.1936 26.7861 16.6686 27.8678 17.7481C28.0402 17.9203 28.2227 18.0823 28.4143 18.2333V13.5437C28.4109 13.4765 28.4091 13.4089 28.4091 13.3409C28.4091 13.2728 28.4109 13.2052 28.4143 13.138C28.4489 12.4707 28.653 11.8483 28.9845 11.3129C29.1422 11.0582 29.3289 10.8231 29.5398 10.6124C30.2377 9.91488 31.2017 9.48347 32.2664 9.48347C33.3305 9.48347 34.294 9.91434 34.9918 10.6112C35.6534 11.2716 36.0762 12.171 36.12 13.1689C36.1226 13.2259 36.1238 13.2832 36.1238 13.3409C36.1238 13.3984 36.1226 13.4558 36.12 13.5127V19.5706H38.4932V13.3409C38.4932 11.6195 37.7947 10.0613 36.6657 8.93425Z" fill="white"/>
<path d="M6.23014 13.349L6.21583 13.3579L6.22676 13.3469L6.22881 13.3448L6.23201 13.3479L6.23788 13.3539L6.23014 13.349ZM12.3414 12.1488H2.56061C2.65655 11.854 2.78698 11.5748 2.94729 11.3159C3.10511 11.0611 3.29165 10.8261 3.50256 10.6152C4.20052 9.91777 5.16452 9.48636 6.22925 9.48636C7.29337 9.48636 8.25674 9.91724 8.95462 10.614L10.6285 8.93715C9.50206 7.81239 7.94679 7.117 6.22925 7.117C4.7749 7.117 3.43694 7.61554 2.37718 8.45124C2.1846 8.60301 2.00135 8.76581 1.82823 8.93883C1.48814 9.27857 1.18717 9.65743 0.932611 10.0682C0.543438 10.6962 0.262829 11.3984 0.1171 12.1488C0.0553058 12.4666 0.0176065 12.7931 0.00622559 13.1262V13.5613C0.0176065 13.8939 0.0551275 14.2197 0.116744 14.5371H9.89843C9.80161 14.8351 9.66948 15.1171 9.50695 15.3785C9.34966 15.6311 9.16401 15.8645 8.95444 16.0737C8.25656 16.7703 7.29319 17.2011 6.22925 17.2011C5.1655 17.2011 4.2023 16.7706 3.50451 16.0741L2.37718 17.2036L1.83054 17.7511C2.00304 17.9232 2.18557 18.0853 2.37718 18.2363C3.43694 19.0719 4.7749 19.5705 6.22925 19.5705C7.94697 19.5705 9.50223 18.875 10.6289 17.7501C10.9676 17.4119 11.2676 17.0347 11.5216 16.6261C11.9133 15.996 12.1955 15.2908 12.3418 14.5371C12.4128 14.1712 12.4518 13.7938 12.4557 13.4081V13.2794C12.4518 12.8931 12.4127 12.5153 12.3414 12.1488Z" fill="white"/>
<path d="M84.0891 1.36335C84.0891 2.01784 83.5585 2.54848 82.904 2.54848C82.2495 2.54848 81.7189 2.01784 81.7189 1.36335C81.7189 0.708863 82.2495 0.178229 82.904 0.178229C83.5585 0.178229 84.0891 0.708863 84.0891 1.36335Z" fill="white"/>
<path d="M74.0696 13.349L74.0553 13.3579L74.0662 13.3469L74.0684 13.3448L74.0715 13.3479L74.0774 13.3539L74.0696 13.349ZM80.1809 12.1488H70.4001C70.496 11.854 70.6265 11.5748 70.7869 11.3159C70.9446 11.0611 71.1312 10.8261 71.342 10.6152C72.04 9.91777 73.0041 9.48636 74.0687 9.48636C75.1328 9.48636 76.0962 9.91724 76.7942 10.614L78.468 8.93715C77.3415 7.81239 75.7864 7.117 74.0687 7.117C72.6144 7.117 71.2764 7.61554 70.2167 8.45124C70.0242 8.60301 69.8408 8.76581 69.6677 8.93883C69.3276 9.27857 69.0266 9.65743 68.7721 10.0682C68.3829 10.6962 68.1023 11.3984 67.9566 12.1488C67.8948 12.4666 67.8571 12.7931 67.8457 13.1262V13.5613C67.8571 13.8939 67.8946 14.2197 67.9562 14.5371H77.7379C77.6411 14.8351 77.509 15.1171 77.3464 15.3785C77.1892 15.6311 77.0035 15.8645 76.7939 16.0737C76.096 16.7703 75.1327 17.2011 74.0687 17.2011C73.005 17.2011 72.0418 16.7706 71.344 16.0741L70.2167 17.2036L69.6701 17.7511C69.8425 17.9232 70.0251 18.0853 70.2167 18.2363C71.2764 19.0719 72.6144 19.5705 74.0687 19.5705C75.7864 19.5705 77.3418 18.875 78.4683 17.7501C78.8071 17.4119 79.1071 17.0347 79.3612 16.6261C79.7528 15.996 80.035 15.2908 80.1812 14.5371C80.2523 14.1712 80.2913 13.7938 80.2951 13.4081V13.2794C80.2913 12.8931 80.2522 12.5153 80.1809 12.1488Z" fill="white"/>
</svg>
