<svg xmlns="http://www.w3.org/2000/svg" xmlns:svg="http://www.w3.org/2000/svg" xmlns:xlink="http://www.w3.org/1999/xlink" id="svg1" width="1200" height="1200" fill="none" version="1.1" viewBox="0 0 36 36"><defs id="defs1"><linearGradient id="linearGradient4"><stop style="stop-color:#1a1a1a;stop-opacity:1" id="stop4" offset="0"/><stop style="stop-color:#1a1a1a;stop-opacity:0" id="stop5" offset="1"/></linearGradient><linearGradient id="linearGradient2"><stop style="stop-color:#1a1a1a;stop-opacity:1" id="stop2" offset="0"/><stop style="stop-color:#1a1a1a;stop-opacity:0" id="stop3" offset="1"/></linearGradient><linearGradient id="linearGradient3" x1="8.415" x2="27.6" y1="10.015" y2="10.015" gradientUnits="userSpaceOnUse" xlink:href="#linearGradient2"/><linearGradient id="linearGradient5" x1="31.601" x2="100.521" y1="10.252" y2="10.252" gradientUnits="userSpaceOnUse" xlink:href="#linearGradient4"/></defs><g id="g1" transform="translate(0,3.2859597)"><rect style="fill:#999;stroke:#1a1a1a;stroke-width:.0403875" id="rect1" width="107.786" height="68.939" x="-35.893" y="-19.755"/><g id="g2" transform="translate(-36.098584,4.7140405)"><path id="path1" stroke="#000" stroke-linecap="round" stroke-linejoin="round" stroke-width="2" d="m 19.6471,14.375 -1.5513,-1.4127 c -0.7607,-0.6929 -1.1411,-1.0393 -1.5722,-1.1705 -0.3797,-0.1156 -0.78516,-0.1156 -1.16482,0 -0.4311,0.1312 -0.81148,0.4776 -1.57226,1.1705 l -2.86613,2.5952 m 8.726711,-1.1825 0.3159,-0.2877 c 0.7608,-0.6929 1.141199,-1.0393 1.5722,-1.1705 0.3797,-0.1156 0.7852,-0.1156 1.1648,0 0.4311,0.1312 0.8115,0.4776 1.5723,1.1705 l 1.1514,1.0023 m -5.7766,-0.7146 3.3998,3.0778 M 23,7 c 0,1.1046 -0.8954,2 -2,2 -1.1046,0 -2,-0.8954 -2,-2 0,-1.10457 0.8954,-2 2,-2 1.1046,0 2,0.89543 2,2 z m 4,3 c 0,4.9706 -4.0294,9 -9,9 -4.97056,0 -8.9999998,-4.0294 -8.9999998,-9 0,-4.97056 4.0294398,-9 8.9999998,-9 4.9706,0 9,4.02944 9,9 z" style="stroke:url(#linearGradient3);stroke-dasharray:1.20000005,2.4000001;stroke-dashoffset:0;stroke-linejoin:round;stroke-linecap:round;stroke-width:1.20000002"/><path id="text1" d="M 38.001677,5.7304296 V 13.024611 H 36.669634 L 33.496238,8.4336933 h -0.05342 V 13.024611 H 31.900635 V 5.7304296 h 1.353413 l 3.148465,4.5873564 h 0.06411 V 5.7304296 Z m 3.69386,7.4010304 c -0.553237,0 -1.031681,-0.117533 -1.43533,-0.3526 -0.401275,-0.237441 -0.711135,-0.567483 -0.929581,-0.990128 -0.218445,-0.425019 -0.327668,-0.917709 -0.327668,-1.478069 0,-0.5651091 0.109223,-1.058986 0.327668,-1.4816307 0.218446,-0.4250191 0.528306,-0.7550618 0.929581,-0.9901282 0.403649,-0.2374408 0.882093,-0.3561612 1.43533,-0.3561612 0.553237,0 1.030493,0.1187204 1.431768,0.3561612 0.403649,0.2350664 0.714697,0.5651091 0.933142,0.9901282 0.218446,0.4226447 0.327669,0.9165216 0.327669,1.4816307 0,0.56036 -0.109223,1.05305 -0.327669,1.478069 -0.218445,0.422645 -0.529493,0.752687 -0.933142,0.990128 -0.401275,0.235067 -0.878531,0.3526 -1.431768,0.3526 z m 0.0071,-1.175332 c 0.251687,0 0.461822,-0.07123 0.630405,-0.213697 0.168583,-0.144839 0.295614,-0.341915 0.381093,-0.591228 0.08785,-0.249313 0.131779,-0.533054 0.131779,-0.851225 0,-0.3181706 -0.04393,-0.6019123 -0.131779,-0.8512252 C 42.628672,9.1994399 42.501648,9.0023641 42.333065,8.8575252 42.164482,8.7126863 41.954347,8.6402668 41.70266,8.6402668 c -0.254062,0 -0.467759,0.07242 -0.64109,0.2172584 -0.170957,0.1448389 -0.300363,0.3419147 -0.388216,0.5912276 -0.08548,0.2493129 -0.128218,0.5330546 -0.128218,0.8512252 0,0.318171 0.04274,0.601912 0.128218,0.851225 0.08785,0.249313 0.217259,0.446389 0.388216,0.591228 0.173331,0.142465 0.387028,0.213697 0.64109,0.213697 z m 5.959528,1.068483 V 7.5539751 h 1.517247 V 13.024611 Z M 48.42435,6.8487759 c -0.225569,0 -0.419083,-0.074794 -0.580543,-0.2243816 -0.159085,-0.1519621 -0.238628,-0.3336044 -0.238628,-0.5449267 0,-0.2089479 0.07954,-0.3882157 0.238628,-0.5378034 0.16146,-0.1519621 0.354974,-0.2279432 0.580543,-0.2279432 0.225569,0 0.417896,0.075981 0.576981,0.2279432 0.16146,0.1495877 0.24219,0.3288555 0.24219,0.5378034 0,0.2113223 -0.08073,0.3929646 -0.24219,0.5449267 -0.159085,0.1495877 -0.351412,0.2243816 -0.576981,0.2243816 z m 1.945111,6.1758351 V 7.5539751 h 1.446014 V 8.519172 h 0.06411 c 0.113972,-0.3205451 0.303925,-0.5734195 0.569858,-0.7586234 0.265934,-0.1852038 0.584105,-0.2778057 0.954512,-0.2778057 0.375157,0 0.694515,0.093789 0.958074,0.2813673 0.263559,0.1852039 0.439265,0.4368911 0.527118,0.7550618 h 0.05699 c 0.111597,-0.3134219 0.313422,-0.5639219 0.605474,-0.7515002 0.294427,-0.1899526 0.642278,-0.2849289 1.043553,-0.2849289 0.510497,0 0.924831,0.1626469 1.243002,0.4879408 0.320545,0.3229195 0.480818,0.7811803 0.480818,1.3747824 V 13.024611 H 56.805317 V 9.6446415 c 0,-0.3039243 -0.08073,-0.5318675 -0.24219,-0.6838296 -0.161459,-0.1519621 -0.363284,-0.2279432 -0.605474,-0.2279432 -0.275431,0 -0.490315,0.087853 -0.644652,0.2635594 -0.154336,0.1733317 -0.231504,0.4024621 -0.231504,0.6873911 V 13.024611 H 53.610551 V 9.612587 c 0,-0.2683081 -0.07717,-0.4820049 -0.231505,-0.6410902 -0.151962,-0.1590854 -0.3526,-0.2386281 -0.601913,-0.2386281 -0.168583,0 -0.320545,0.042739 -0.455886,0.1282181 -0.132967,0.083104 -0.238628,0.2006375 -0.316983,0.3525996 -0.07836,0.1495877 -0.117534,0.3252939 -0.117534,0.5271186 v 3.283806 z m 10.685312,0.103287 c -0.349038,0 -0.660086,-0.06055 -0.933143,-0.181642 -0.273057,-0.123469 -0.489128,-0.305112 -0.648213,-0.544927 -0.156711,-0.242189 -0.235066,-0.543739 -0.235066,-0.904649 0,-0.303925 0.0558,-0.559174 0.167395,-0.765747 0.111597,-0.206573 0.26356,-0.372782 0.455887,-0.498626 0.192327,-0.125843 0.410772,-0.220819 0.655336,-0.2849285 0.246939,-0.064109 0.505749,-0.1092224 0.776432,-0.1353412 0.318171,-0.033242 0.574607,-0.064109 0.769308,-0.092602 0.194701,-0.030867 0.335979,-0.075981 0.423832,-0.1353412 0.08785,-0.05936 0.13178,-0.1472131 0.13178,-0.2635593 v -0.02137 c 0,-0.2255688 -0.07123,-0.4000878 -0.213697,-0.523557 -0.14009,-0.1234692 -0.33954,-0.1852038 -0.598351,-0.1852038 -0.273057,0 -0.490315,0.060547 -0.651775,0.1816422 -0.16146,0.1187204 -0.268308,0.2683081 -0.320545,0.4487631 L 59.430701,9.106838 c 0.07123,-0.3324171 0.211322,-0.6197205 0.42027,-0.8619101 0.208948,-0.2445641 0.478443,-0.4321423 0.808486,-0.5627348 0.332417,-0.1329668 0.717071,-0.1994502 1.153962,-0.1994502 0.303925,0 0.59479,0.035616 0.872595,0.1068483 0.28018,0.071232 0.528306,0.1816423 0.744377,0.33123 0.218446,0.1495877 0.390591,0.3419147 0.516434,0.5769811 0.125843,0.232692 0.188765,0.511685 0.188765,0.8369789 v 3.6898298 h -1.438891 v -0.758623 h -0.04274 c -0.08785,0.170957 -0.205387,0.321732 -0.3526,0.452325 -0.147213,0.128218 -0.324107,0.22913 -0.53068,0.302737 -0.206573,0.07123 -0.445201,0.106848 -0.715884,0.106848 z m 0.434517,-1.047114 c 0.223194,0 0.42027,-0.04393 0.591227,-0.131779 0.170957,-0.09023 0.305111,-0.211323 0.402462,-0.363285 0.09735,-0.151962 0.146026,-0.324107 0.146026,-0.516434 v -0.580542 c -0.04749,0.03087 -0.112783,0.05936 -0.195888,0.08548 -0.08073,0.02375 -0.172145,0.0463 -0.274244,0.06767 -0.1021,0.01899 -0.2042,0.0368 -0.306299,0.05342 -0.102099,0.01425 -0.194701,0.02731 -0.277806,0.03918 -0.178081,0.02612 -0.333604,0.06767 -0.466571,0.124656 -0.132967,0.05699 -0.236253,0.134155 -0.30986,0.231505 -0.07361,0.09498 -0.11041,0.213697 -0.11041,0.356161 0,0.206574 0.07479,0.364472 0.224381,0.473695 0.151963,0.106848 0.34429,0.160272 0.576982,0.160273 z m 6.268909,3.109288 c -0.491503,0 -0.91296,-0.06767 -1.264372,-0.203012 -0.349038,-0.132967 -0.626844,-0.314609 -0.833418,-0.544927 -0.206573,-0.230317 -0.340727,-0.489128 -0.402462,-0.776431 l 1.403275,-0.188766 c 0.04274,0.109223 0.110411,0.211322 0.203012,0.306299 0.0926,0.09498 0.214884,0.170957 0.366846,0.227943 0.154337,0.05936 0.341915,0.08904 0.562735,0.08904 0.330043,0 0.601912,-0.08073 0.815609,-0.242189 0.216071,-0.159085 0.324107,-0.426206 0.324107,-0.801363 v -1.000813 h -0.06411 c -0.06648,0.151962 -0.166205,0.295614 -0.299175,0.430955 -0.132967,0.135341 -0.303925,0.245751 -0.512873,0.33123 -0.208947,0.08548 -0.45826,0.128218 -0.747938,0.128218 -0.410773,0 -0.784742,-0.09498 -1.121908,-0.284929 C 65.852736,12.469 65.585615,12.17576 65.386164,11.781609 65.189088,11.385083 65.09055,10.884083 65.09055,10.278608 c 0,-0.6197202 0.100912,-1.137341 0.302737,-1.5528625 0.201825,-0.4155214 0.470134,-0.7265689 0.804925,-0.9331424 0.337166,-0.2065735 0.706386,-0.3098602 1.107661,-0.3098602 0.306299,0 0.562735,0.052237 0.769308,0.1567109 0.206574,0.1020995 0.372783,0.2303176 0.498626,0.3846541 0.128218,0.1519621 0.226756,0.3015499 0.295614,0.4487632 h 0.05699 v -0.918896 h 1.506562 v 5.5240609 c 0,0.465384 -0.113972,0.854787 -0.341915,1.168208 -0.227943,0.313422 -0.54374,0.548489 -0.947389,0.7052 -0.401275,0.159085 -0.863097,0.238628 -1.385467,0.238628 z m 0.03205,-3.383532 c 0.244564,0 0.451137,-0.06055 0.61972,-0.181642 0.170957,-0.123469 0.30155,-0.299176 0.391777,-0.527119 0.0926,-0.230317 0.138903,-0.505749 0.138903,-0.826294 0,-0.3205449 -0.04511,-0.5983506 -0.135341,-0.833417 -0.09023,-0.2374409 -0.22082,-0.4214575 -0.391777,-0.5520499 -0.170957,-0.1305925 -0.378718,-0.1958887 -0.623282,-0.1958887 -0.249313,0 -0.459449,0.067671 -0.630406,0.2030119 -0.170957,0.1329669 -0.300363,0.3181707 -0.388216,0.5556115 -0.08785,0.2374408 -0.131779,0.5116849 -0.131779,0.8227322 0,0.315797 0.04393,0.588854 0.131779,0.819171 0.09023,0.227943 0.219633,0.404837 0.388216,0.53068 0.170957,0.123469 0.381093,0.185204 0.630406,0.185204 z m 5.098339,-1.129029 c -0.0302,-0.307429 0.02996,-0.596882 0.04494,-0.8953224 l 2.265373,-0.044943 c 0,-0.2184455 -0.04749,-0.4119598 -0.142464,-0.5805428 -0.09498,-0.168583 -0.226756,-0.3003627 -0.395339,-0.395339 -0.166209,-0.097351 -0.359723,-0.1460261 -0.580543,-0.1460261 -0.230317,0 -0.434516,0.053424 -0.612597,0.1602726 C 73.292255,8.880082 73.15454,9.0213593 73.054815,9.19944 72.95509,9.3751462 72.90404,9.5710349 72.901665,9.787106 v 0.893965 c 0,0.270682 0.04986,0.504561 0.149588,0.701637 0.102099,0.197076 0.245751,0.349038 0.430955,0.455887 0.185204,0.106848 0.404837,0.160272 0.658898,0.160272 0.168583,0 0.32292,-0.02374 0.46301,-0.07123 0.14009,-0.04749 0.259998,-0.118719 0.359723,-0.213697 0.09973,-0.09498 0.175706,-0.211322 0.227943,-0.349038 l 1.403275,0.0926 c -0.07123,0.337166 -0.217258,0.631593 -0.438078,0.88328 -0.218445,0.249313 -0.501,0.444014 -0.847664,0.584104 -0.344289,0.137716 -0.742003,0.206574 -1.19314,0.206574 h -2.8e-5 c -0.562735,0 -1.047114,-0.113972 -1.453138,-0.341915 -0.403649,-0.230317 -0.714697,-0.555611 -0.933142,-0.975882 -0.218445,-0.422645 -0.327668,-0.922457 -0.327668,-1.499438 0,-0.562735 0.109223,-1.056612 0.327668,-1.4816311 0.218445,-0.4250191 0.525931,-0.756249 0.922457,-0.9936898 0.398901,-0.2374408 0.866659,-0.3561612 1.403276,-0.3561612 0.36091,0 0.696889,0.058173 1.007936,0.174519 0.313422,0.1139715 0.586479,0.2861161 0.819171,0.5164337 0.235066,0.2303176 0.417895,0.5199954 0.548488,0.8690334 0.130593,0.3466636 0.195889,0.7526873 0.195889,1.218071 v 0.335811 l -3.738496,0.0809 M 82.148084,9.1139613 80.759055,9.19944 c -0.02375,-0.1187205 -0.0748,-0.2255688 -0.153149,-0.3205451 -0.07836,-0.097351 -0.181642,-0.1745191 -0.30986,-0.2315048 -0.125844,-0.05936 -0.276619,-0.08904 -0.452325,-0.08904 -0.235067,0 -0.43333,0.049863 -0.594789,0.1495877 -0.16146,0.097351 -0.24219,0.2279432 -0.24219,0.3917773 0,0.1305925 0.05224,0.2410024 0.156711,0.3312299 0.104474,0.090228 0.283742,0.162647 0.537803,0.2172584 l 0.990129,0.1994503 c 0.531867,0.1092231 0.928393,0.2849293 1.189578,0.5271183 0.261185,0.24219 0.391777,0.56036 0.391777,0.954512 0,0.358536 -0.105661,0.673145 -0.316983,0.943827 -0.208948,0.270683 -0.496251,0.482005 -0.86191,0.633967 -0.363285,0.149588 -0.782368,0.224382 -1.257249,0.224382 -0.724195,0 -1.301176,-0.150775 -1.730944,-0.452325 -0.427393,-0.303924 -0.677893,-0.717071 -0.7515,-1.239441 l 1.492315,-0.07836 c 0.04511,0.22082 0.154336,0.389403 0.327669,0.505749 0.173332,0.113972 0.395339,0.170957 0.666021,0.170957 0.265934,0 0.479631,-0.05105 0.64109,-0.153149 0.163835,-0.104474 0.246939,-0.238628 0.249313,-0.402463 -0.0024,-0.137715 -0.06057,-0.250499 -0.174519,-0.338353 -0.113971,-0.09023 -0.289677,-0.159085 -0.527118,-0.206573 L 79.081536,10.748741 C 78.547294,10.641893 78.149581,10.456689 77.888396,10.19313 77.629585,9.9295705 77.50018,9.5935917 77.50018,9.1851935 c 0,-0.3514124 0.09498,-0.6541494 0.284929,-0.9082111 0.192327,-0.2540617 0.461823,-0.4499503 0.808486,-0.587666 0.349038,-0.1377157 0.757436,-0.2065735 1.225195,-0.2065735 0.690953,0 1.234692,0.1460261 1.631218,0.4380783 0.398901,0.2920522 0.631593,0.6897656 0.698076,1.1931401 z m 4.30339,5.9621387 c -0.192327,0 -0.372782,-0.01543 -0.541365,-0.0463 -0.166209,-0.02849 -0.303924,-0.0653 -0.413147,-0.11041 l 0.341915,-1.132593 c 0.178081,0.05461 0.338353,0.08429 0.480817,0.08904 0.144839,0.0047 0.269496,-0.02851 0.37397,-0.09973 0.106848,-0.07123 0.193514,-0.192328 0.259997,-0.363285 l 0.08904,-0.231505 -1.962449,-5.6273469 h 1.595603 l 1.132592,4.0174989 h 0.05699 l 1.143278,-4.0174989 h 1.606287 l -2.126283,6.0618639 c -0.102099,0.294427 -0.241002,0.550863 -0.416708,0.769308 -0.173332,0.22082 -0.392965,0.39059 -0.658899,0.509311 -0.265933,0.121095 -0.586478,0.181642 -0.961635,0.181642 z m 7.229845,-1.94464 c -0.562735,0 -1.047114,-0.113972 -1.453138,-0.341915 -0.403649,-0.230317 -0.714697,-0.555611 -0.933143,-0.975882 -0.218445,-0.422645 -0.327668,-0.922457 -0.327668,-1.499438 0,-0.562735 0.109223,-1.056612 0.327668,-1.4816311 0.218446,-0.4250191 0.525932,-0.756249 0.922458,-0.9936898 0.398901,-0.2374408 0.866659,-0.3561612 1.403275,-0.3561612 0.36091,0 0.696889,0.058173 1.007936,0.174519 0.313422,0.1139715 0.586479,0.2861161 0.819171,0.5164337 0.235067,0.2303176 0.417896,0.5199954 0.548489,0.8690334 0.130592,0.3466636 0.195888,0.7526873 0.195888,1.218071 v 0.416709 l -3.678733,-0.05084 0.01272,-0.8894186 h 2.237815 c 0,-0.2184455 -0.04749,-0.4119598 -0.142465,-0.5805428 -0.09498,-0.168583 -0.226756,-0.3003627 -0.395339,-0.395339 -0.166209,-0.097351 -0.359723,-0.1460261 -0.580543,-0.1460261 -0.230317,0 -0.434516,0.053424 -0.612597,0.1602726 -0.175706,0.1044739 -0.313422,0.2457512 -0.413147,0.4238319 -0.09972,0.1757062 -0.150775,0.3715949 -0.153149,0.587666 v 0.893965 c 0,0.270682 0.04986,0.504561 0.149588,0.701637 0.102099,0.197076 0.245751,0.349038 0.430955,0.455887 0.185203,0.106848 0.404836,0.160272 0.658898,0.160272 0.168583,0 0.322919,-0.02374 0.463009,-0.07123 0.140091,-0.04749 0.259998,-0.118719 0.359723,-0.213697 0.09973,-0.09498 0.175707,-0.211322 0.227944,-0.349038 l 1.403275,0.0926 c -0.07123,0.337166 -0.217259,0.631593 -0.438079,0.88328 -0.218445,0.249313 -0.501,0.444014 -0.847663,0.584104 -0.344289,0.137716 -0.742003,0.206574 -1.19314,0.206574 z M 100.07132,7.5539751 V 8.693691 H 96.776833 V 7.5539751 Z M 97.524772,6.2433018 h 1.517246 v 5.1002292 c 0,0.14009 0.02137,0.249313 0.06411,0.327668 0.04274,0.07598 0.1021,0.129405 0.178081,0.160272 0.07836,0.03087 0.168583,0.0463 0.270683,0.0463 0.07123,0 0.142464,-0.0059 0.213696,-0.01781 0.07123,-0.01425 0.125844,-0.02493 0.163834,-0.03205 l 0.238628,1.129031 c -0.076,0.02375 -0.182828,0.05105 -0.320545,0.08192 -0.137715,0.03324 -0.305111,0.05342 -0.502187,0.06055 -0.365659,0.01425 -0.686204,-0.03443 -0.961635,-0.146026 -0.273057,-0.111597 -0.485567,-0.284929 -0.637529,-0.519995 -0.151962,-0.235067 -0.226756,-0.531868 -0.224381,-0.890403 z" style="font-weight:700;font-size:10.0295px;font-family:inter;-inkscape-font-specification:'inter Bold';letter-spacing:-.0208949px;stroke:url(#linearGradient5);stroke-width:.6" aria-label="No images yet"/></g></g></svg>