<?xml version="1.0" standalone="no"?>
<!DOCTYPE svg PUBLIC "-//W3C//DTD SVG 20010904//EN"
 "http://www.w3.org/TR/2001/REC-SVG-20010904/DTD/svg10.dtd">
<svg version="1.0" xmlns="http://www.w3.org/2000/svg"
 width="320.000000pt" height="320.000000pt" viewBox="0 0 320.000000 320.000000"
 preserveAspectRatio="xMidYMid meet">
<metadata>
Created by potrace 1.14, written by Peter Selinger 2001-2017
</metadata>
<g transform="translate(0.000000,320.000000) scale(0.100000,-0.100000)"
fill="#000000" stroke="none">
<path d="M1957 3129 c-124 -29 -224 -129 -262 -263 -24 -83 -17 -239 15 -321
32 -81 113 -163 195 -195 49 -19 79 -24 165 -24 127 0 199 24 268 88 45 41 98
135 84 147 -4 4 -49 9 -100 12 l-92 5 -21 -29 c-29 -42 -69 -59 -135 -59 -97
0 -167 60 -176 150 l-3 35 269 3 268 2 -4 93 c-10 191 -97 309 -260 353 -59
15 -153 17 -211 3z m198 -180 c35 -21 62 -63 67 -104 l3 -30 -162 -3 -163 -2
0 27 c0 35 31 87 65 109 55 36 133 38 190 3z"/>
<path d="M2836 3128 c-37 -10 -116 -77 -143 -123 -10 -17 -12 -8 -12 53 l-1
72 -105 0 -105 0 0 -395 0 -395 110 0 110 0 0 248 c0 223 2 251 20 290 35 76
142 104 210 54 56 -41 60 -64 60 -339 l0 -253 111 0 110 0 -3 298 c-3 288 -4
299 -27 350 -54 120 -192 177 -335 140z"/>
<path d="M1020 3040 l0 -90 184 -2 185 -3 -194 -240 -194 -240 -1 -62 0 -63
335 0 335 0 0 85 0 85 -190 2 -190 3 185 238 185 238 0 70 0 69 -320 0 -320 0
0 -90z"/>
<path d="M742 3104 c-71 -50 -67 -163 8 -208 72 -42 173 6 180 85 5 53 -1 72
-34 105 -29 29 -41 34 -83 34 -28 0 -58 -7 -71 -16z"/>
<path d="M754 2554 c-95 -46 -80 -189 24 -222 37 -12 46 -12 79 5 50 25 76 62
75 111 -1 95 -92 149 -178 106z"/>
<path d="M2900 2039 c-33 -14 -118 -93 -317 -291 l-271 -271 -4 194 c-3 176
-5 198 -25 234 -25 47 -74 95 -123 121 -33 18 -78 19 -1005 19 l-970 0 -41
-22 c-57 -30 -111 -97 -129 -157 -22 -74 -22 -1548 0 -1622 19 -65 76 -131
139 -160 l51 -24 946 0 c1051 0 1002 -3 1074 67 21 20 48 59 61 87 22 48 24
62 24 246 l0 195 278 -277 c184 -184 290 -282 314 -293 105 -43 221 4 269 109
18 39 19 83 19 861 0 565 -4 832 -11 860 -21 76 -119 145 -205 145 -16 0 -49
-10 -74 -21z m-788 -187 l23 -23 2 -502 3 -502 -72 80 c-161 179 -212 210
-338 210 -105 -1 -166 -32 -258 -130 l-70 -74 -118 132 c-292 325 -315 342
-454 342 -144 0 -159 -11 -428 -307 l-227 -251 -3 482 c-2 520 -1 540 50 561
14 5 396 8 945 7 l922 -2 23 -23z m868 -794 l0 -783 -335 335 -335 335 0 115
0 115 332 332 c183 183 334 333 335 333 2 0 3 -352 3 -782z m-2095 146 c21 -9
149 -144 331 -345 189 -208 309 -332 326 -338 54 -19 108 21 108 79 0 32 -10
48 -65 110 l-65 72 61 68 c74 84 124 107 190 90 33 -9 66 -40 205 -192 l165
-182 -3 -144 c-3 -143 -3 -144 -31 -168 l-28 -24 -914 0 c-581 0 -923 4 -940
10 -42 16 -55 63 -55 202 l0 123 276 305 c324 357 349 377 439 334z"/>
<path d="M1363 1633 c-12 -2 -36 -20 -53 -39 -24 -28 -30 -44 -30 -80 0 -85
47 -134 128 -134 95 0 153 114 102 198 -29 48 -82 68 -147 55z"/>
</g>
</svg>
