<?xml version="1.0" standalone="no"?>
<!DOCTYPE svg PUBLIC "-//W3C//DTD SVG 20010904//EN"
 "http://www.w3.org/TR/2001/REC-SVG-20010904/DTD/svg10.dtd">
<svg version="1.0" xmlns="http://www.w3.org/2000/svg"
 width="1012.000000pt" height="1012.000000pt" viewBox="0 0 1012.000000 1012.000000"
 preserveAspectRatio="xMidYMid meet">
<metadata>
Created by potrace 1.14, written by Peter Selinger 2001-2017
</metadata>
<g transform="translate(0.000000,1012.000000) scale(0.100000,-0.100000)"
fill="#000000" stroke="none">
<path d="M590 8184 c-246 -53 -444 -221 -538 -454 -55 -136 -52 11 -49 -2695
2 -1375 6 -2511 8 -2525 3 -14 8 -31 12 -37 5 -7 6 -13 3 -13 -9 0 60 -167 73
-180 4 -3 12 -17 20 -32 21 -41 133 -160 182 -193 24 -17 47 -34 51 -40 4 -5
8 -6 8 -1 0 5 8 3 17 -5 24 -20 105 -55 173 -76 51 -16 262 -17 2860 -20 1752
-1 2824 1 2855 7 103 20 220 68 298 123 42 29 146 132 181 178 37 51 85 152
108 229 15 55 32 186 29 240 -1 32 -1 87 2 128 1 23 -2 42 -6 42 -5 0 -5 5 -2
10 4 6 6 32 6 58 -1 26 -1 56 -1 67 0 11 0 29 0 40 -1 11 -1 27 0 35 0 8 0 24
0 35 -1 11 -1 26 -1 33 2 25 2 38 0 90 -1 29 0 55 4 58 3 3 1 18 -3 34 -4 16
-6 31 -3 34 8 7 7 105 -1 113 -3 3 -1 13 4 22 5 10 5 23 0 30 -4 8 -4 27 0 42
5 16 5 29 0 29 -5 0 -5 12 -1 28 4 15 5 38 1 52 -3 14 -3 42 0 62 4 20 4 42
-1 49 -4 7 -4 20 1 29 5 9 5 22 0 29 -4 8 -4 27 0 42 5 16 5 29 0 29 -5 0 -5
13 0 29 4 16 6 31 4 34 -8 8 -10 73 -3 100 5 16 4 27 -2 27 -6 0 -7 6 -1 16 5
9 7 26 4 38 l-5 21 24 -20 c13 -11 29 -24 34 -30 6 -6 32 -28 60 -50 27 -22
63 -52 80 -67 47 -42 102 -88 185 -157 14 -11 34 -29 45 -39 11 -10 61 -52
110 -93 50 -41 92 -76 95 -79 9 -9 84 -74 135 -117 65 -53 401 -337 440 -371
17 -14 46 -39 65 -56 20 -17 54 -46 77 -64 23 -19 53 -44 66 -55 12 -12 45
-40 71 -62 27 -22 56 -47 66 -55 10 -8 41 -35 71 -60 62 -53 203 -173 239
-203 109 -93 202 -169 243 -196 63 -43 173 -88 256 -104 63 -13 231 -15 279
-3 12 3 32 8 43 11 93 20 229 92 306 161 107 95 179 207 225 349 l23 70 2
2145 c2 1817 1 2153 -11 2198 -8 29 -15 55 -15 57 -6 43 -58 167 -73 173 -4 2
-8 8 -8 13 0 31 -135 176 -215 230 -27 18 -52 34 -55 35 -3 0 -30 12 -60 26
-49 23 -100 40 -165 55 -44 9 -193 11 -248 2 -119 -19 -262 -83 -346 -154 -26
-22 -69 -58 -96 -80 -26 -22 -53 -45 -59 -50 -12 -11 -186 -158 -224 -190 -14
-11 -30 -24 -36 -30 -6 -5 -40 -35 -76 -65 -36 -30 -70 -60 -76 -66 -6 -5 -31
-26 -55 -45 -23 -18 -52 -43 -64 -54 -12 -11 -44 -38 -71 -60 -27 -21 -59 -49
-71 -62 -12 -13 -25 -23 -29 -23 -4 0 -12 -6 -18 -13 -6 -8 -67 -61 -136 -118
-69 -57 -130 -108 -136 -114 -6 -5 -32 -28 -59 -50 -26 -22 -53 -44 -59 -50
-6 -5 -40 -35 -76 -65 -36 -30 -67 -57 -70 -60 -3 -3 -30 -25 -60 -50 -50 -41
-95 -80 -124 -105 -6 -5 -38 -32 -71 -60 -80 -67 -96 -80 -125 -105 -14 -12
-45 -38 -69 -58 -24 -21 -49 -42 -55 -47 -6 -6 -36 -32 -67 -58 l-57 -47 -4
30 c-3 16 -2 32 0 35 3 3 4 44 3 92 -1 49 -2 95 -1 103 0 8 0 24 0 35 -1 11
-1 27 0 35 0 8 0 24 0 35 -1 11 -1 26 -1 33 2 25 2 38 0 90 -1 29 0 55 4 58 3
3 1 18 -3 34 -4 16 -6 31 -3 34 8 7 7 105 -1 113 -3 3 -1 13 4 22 5 10 5 23 0
30 -4 8 -4 27 0 42 5 16 5 29 0 29 -5 0 -5 12 -1 28 4 15 5 38 1 52 -3 14 -3
39 0 55 4 17 4 39 0 50 -4 11 -4 32 1 47 4 15 4 30 -1 33 -5 3 -6 15 0 29 4
12 4 29 0 36 -5 8 -5 21 0 30 5 9 5 22 1 28 -4 7 -5 32 -1 56 3 24 3 51 0 62
-4 10 -4 31 1 46 4 15 4 30 -1 33 -6 3 -5 16 0 29 5 13 6 26 4 29 -3 3 -7 38
-9 79 -4 96 -20 158 -68 268 -39 88 -156 227 -237 282 -93 63 -182 101 -284
123 -66 13 -387 15 -2853 14 -2347 -1 -2788 -3 -2843 -15z m616 -804 c82 0
196 -1 254 -1 58 0 130 0 160 0 30 1 102 1 160 0 58 0 130 0 160 0 30 1 102 1
160 0 92 -1 182 0 223 2 6 0 185 1 397 0 212 0 392 0 400 0 8 1 224 1 480 0
256 0 472 0 480 0 8 1 224 1 480 0 256 0 472 0 480 0 8 1 225 0 482 -1 256 0
470 0 475 1 4 1 20 1 36 0 l27 -1 0 -1785 c0 -1084 -4 -1785 -9 -1785 -5 0
-22 12 -38 28 -28 26 -129 117 -227 204 -27 24 -58 50 -70 58 -12 8 -32 25
-46 37 -54 50 -196 137 -290 177 -202 86 -514 92 -725 14 -112 -42 -279 -142
-367 -220 -21 -18 -50 -43 -65 -55 -15 -12 -45 -38 -66 -58 l-39 -36 -56 50
c-32 27 -76 67 -98 88 -23 21 -83 76 -135 123 -51 47 -100 92 -109 100 -33 32
-201 176 -266 229 -143 116 -321 196 -496 224 -85 14 -266 15 -328 3 -74 -15
-225 -60 -231 -68 -3 -6 -9 -9 -13 -9 -35 3 -229 -124 -351 -230 -35 -30 -145
-128 -161 -143 -10 -10 -123 -112 -188 -171 -12 -11 -60 -54 -106 -95 -72 -65
-163 -147 -220 -200 -9 -8 -54 -49 -100 -90 -47 -41 -94 -84 -106 -95 -12 -11
-61 -56 -110 -100 -48 -44 -114 -105 -147 -135 -32 -30 -62 -56 -67 -58 -6 -2
-14 262 -12 408 1 8 1 188 1 400 -1 212 0 392 0 400 0 8 0 80 0 160 -1 80 -1
152 0 160 0 8 0 116 0 240 0 124 -1 232 0 240 0 8 0 152 0 320 0 168 0 312 0
320 0 8 0 116 0 240 0 124 0 232 0 240 0 8 0 80 0 160 -1 80 -1 152 -1 160 1
8 1 135 1 283 l0 267 106 -1 c58 -1 108 1 111 4 4 4 10 5 14 2 4 -2 74 -4 156
-5z m8095 -647 c0 -98 0 -185 0 -193 1 -8 0 -441 0 -962 -1 -521 -1 -950 0
-955 1 -4 1 -327 0 -716 l-1 -709 -57 49 c-32 26 -60 50 -63 53 -3 3 -61 52
-130 109 -69 57 -135 114 -147 125 -12 12 -28 26 -35 31 -13 10 -113 94 -158
132 -14 11 -77 65 -140 118 -63 54 -128 109 -145 124 -16 14 -86 73 -155 131
-69 58 -130 110 -136 115 -6 6 -35 30 -64 55 -102 86 -227 191 -264 223 -11
11 -38 33 -60 50 -21 18 -44 37 -51 44 -11 10 -145 124 -190 161 -26 21 -146
124 -161 137 -6 6 -62 53 -124 105 l-112 94 35 31 c41 35 101 86 137 116 14
11 39 32 55 47 17 15 57 49 90 76 33 27 65 54 70 60 6 6 30 27 55 47 25 20 55
45 67 55 12 11 40 35 63 54 23 19 51 43 63 54 12 10 42 35 67 55 24 20 51 43
60 51 9 8 38 33 65 55 27 22 59 49 70 60 12 11 41 36 66 56 24 20 55 47 69 59
14 12 45 39 70 59 25 20 51 41 58 48 7 7 34 29 60 50 26 21 49 41 52 44 3 4
86 75 185 159 99 83 196 166 216 183 19 18 55 48 79 67 24 19 65 53 91 75 25
22 68 59 95 81 27 23 94 80 149 128 55 47 101 86 103 86 1 0 3 -80 3 -177z
m-6367 -2694 c41 -21 169 -122 236 -185 19 -18 47 -43 61 -56 15 -13 66 -59
114 -103 183 -166 200 -182 330 -300 42 -38 94 -86 115 -105 21 -19 70 -64
110 -100 40 -36 89 -81 110 -100 21 -19 73 -66 116 -105 95 -86 163 -148 229
-208 l50 -46 -1624 -1 -1624 0 39 26 c33 23 151 126 244 214 14 14 57 52 94
84 37 33 84 76 105 95 38 37 179 164 260 236 25 22 55 49 66 60 12 11 59 54
105 95 46 41 95 86 110 100 15 14 61 56 103 93 41 37 88 80 104 95 121 112
228 195 283 220 77 34 188 31 264 -9z m2181 -390 c40 -20 79 -43 85 -49 3 -3
34 -30 70 -59 79 -65 189 -162 242 -213 21 -21 41 -38 43 -38 2 0 15 -10 27
-22 13 -13 52 -48 87 -78 35 -30 69 -60 75 -65 6 -6 42 -37 81 -70 38 -33 81
-70 95 -83 29 -27 114 -88 118 -84 15 14 22 -10 22 -78 l0 -80 -294 0 -293 0
-59 53 c-33 28 -68 61 -80 72 -11 11 -40 37 -65 59 -55 48 -200 179 -250 226
-20 19 -70 64 -110 100 -40 36 -84 76 -98 89 -14 13 -57 51 -94 84 l-68 61 48
43 c57 51 59 52 103 83 19 14 37 28 40 31 3 4 25 14 50 23 55 20 181 17 225
-5z"/>
<path d="M4440 7169 c-61 -8 -205 -46 -229 -60 -9 -4 -42 -20 -73 -34 -142
-65 -326 -217 -408 -340 -19 -27 -38 -53 -44 -57 -6 -4 -7 -8 -3 -8 5 0 -1
-14 -13 -31 -43 -59 -115 -258 -126 -344 -2 -16 -6 -46 -9 -65 -6 -40 -6 -191
-1 -232 4 -27 14 -91 22 -134 8 -44 44 -145 75 -211 104 -218 297 -411 509
-510 86 -40 176 -71 222 -77 21 -2 41 -7 46 -10 23 -14 208 -21 297 -11 149
17 249 46 370 107 296 148 493 403 571 740 14 59 19 122 18 228 -2 143 -7 184
-39 290 -22 76 -107 267 -125 280 -3 3 -21 26 -39 52 -36 55 -146 168 -206
214 -50 38 -156 106 -170 108 -5 1 -28 11 -50 23 -32 16 -133 54 -155 58 -3 1
-23 5 -45 9 -79 17 -92 18 -215 21 -69 1 -150 -1 -180 -6z m280 -725 c90 -35
140 -80 197 -174 32 -51 46 -163 31 -233 -28 -127 -128 -233 -258 -273 -42
-13 -142 -11 -188 3 -69 20 -190 102 -175 117 4 3 1 6 -5 6 -6 0 -26 30 -44
67 -29 60 -32 75 -32 152 0 76 4 94 31 151 82 168 277 250 443 184z"/>
</g>
</svg>
