<?xml version="1.0" encoding="UTF-8" standalone="no"?>
<svg
   fill="none"
   viewBox="0 0 71.144112 12.136007"
   stroke-width="1.5"
   stroke="currentColor"
   class="size-6"
   version="1.1"
   id="svg1"
   sodipodi:docname="streamzen-logo-long.svg"
   inkscape:version="1.3.2 (091e20e, 2023-11-25)"
   width="71.144112"
   height="12.136007"
   xmlns:inkscape="http://www.inkscape.org/namespaces/inkscape"
   xmlns:sodipodi="http://sodipodi.sourceforge.net/DTD/sodipodi-0.dtd"
   xmlns="http://www.w3.org/2000/svg"
   xmlns:svg="http://www.w3.org/2000/svg">
  <defs
     id="defs1" />
  <sodipodi:namedview
     id="namedview1"
     pagecolor="#505050"
     bordercolor="#eeeeee"
     borderopacity="1"
     inkscape:showpageshadow="0"
     inkscape:pageopacity="0"
     inkscape:pagecheckerboard="0"
     inkscape:deskcolor="#505050"
     inkscape:zoom="8.4410872"
     inkscape:cx="32.934146"
     inkscape:cy="16.940946"
     inkscape:window-width="1392"
     inkscape:window-height="841"
     inkscape:window-x="0"
     inkscape:window-y="496"
     inkscape:window-maximized="0"
     inkscape:current-layer="svg1" />
  <path
     d="m 27.332248,5.0261931 -1.424663,0.087672 Q 25.871055,4.9312155 25.750506,4.7850962 25.629958,4.6353239 25.432697,4.5476523 q -0.193608,-0.091325 -0.463929,-0.091325 -0.361645,0 -0.610048,0.1534253 -0.248403,0.1497723 -0.248403,0.4018281 0,0.2009141 0.160731,0.3397275 0.160731,0.1388133 0.551601,0.2228319 l 1.015529,0.2045671 q 0.818268,0.1680372 1.220096,0.5406415 0.401828,0.3726043 0.401828,0.9789995 0,0.5516004 -0.325115,0.9680405 -0.321463,0.41644 -0.884022,0.650231 -0.558906,0.2301379 -1.289503,0.2301379 -1.11416,0 -1.77535,-0.4639289 Q 22.528575,8.2152473 22.415333,7.411591 l 1.5306,-0.080366 q 0.06941,0.3397274 0.336074,0.5187236 0.266668,0.1753432 0.683108,0.1753432 0.409134,0 0.657537,-0.1570783 0.252056,-0.1607312 0.255709,-0.4127871 -0.0037,-0.211873 -0.178997,-0.3470334 -0.175343,-0.1388133 -0.540641,-0.211873 L 24.187029,6.7029123 Q 23.365108,6.5385281 22.96328,6.1330469 22.565105,5.7275658 22.565105,5.0992527 q 0,-0.5406415 0.292239,-0.9315107 0.295891,-0.3908691 0.829227,-0.6027422 0.536988,-0.211873 1.256626,-0.211873 1.063018,0 1.673066,0.4493169 0.613701,0.449317 0.715985,1.2237494 z M 30.66761,3.4261865 V 4.5951411 H 27.288601 V 3.4261865 Z M 28.055727,2.0818887 h 1.556171 v 5.2310718 q 0,0.215526 0.06575,0.3360744 0.06575,0.1168955 0.182649,0.1643843 0.120548,0.047489 0.277626,0.047489 0.10959,0 0.219179,-0.018265 0.10959,-0.021918 0.168038,-0.032877 l 0.24475,1.1579956 q -0.116896,0.03653 -0.328769,0.084019 -0.211873,0.051142 -0.515071,0.062101 Q 29.363495,9.135799 28.939749,8.9641088 28.519656,8.7924186 28.285865,8.4307733 28.052074,8.069128 28.055727,7.5175275 Z m 2.864123,6.9552798 v -5.610982 h 1.508682 v 0.9789994 h 0.05845 q 0.153426,-0.5223765 0.515071,-0.7890443 0.361645,-0.2703208 0.83288,-0.2703208 0.116896,0 0.252056,0.014612 0.13516,0.014612 0.237444,0.040183 v 1.3808276 q -0.10959,-0.032877 -0.303198,-0.058448 -0.193608,-0.025571 -0.354339,-0.025571 -0.343381,0 -0.613701,0.1497723 Q 32.786524,4.9933162 32.629446,5.256331 32.47602,5.5193458 32.47602,5.8627262 v 3.1744423 z m 5.739013,0.1095895 q -0.865756,0 -1.490417,-0.3506864 Q 34.547439,8.4417323 34.211365,7.7951543 33.87529,7.1449233 33.87529,6.2572484 q 0,-0.865757 0.336075,-1.519641 0.336074,-0.653884 0.946122,-1.0191823 0.613702,-0.3652983 1.439276,-0.3652983 0.555253,0 1.033794,0.1789962 0.482194,0.1753432 0.840186,0.5296825 0.361645,0.3543394 0.56256,0.8913279 0.200914,0.5333355 0.200914,1.2493202 v 0.427399 H 34.496298 V 5.6654651 h 3.273072 q 0,-0.3360744 -0.146119,-0.5954362 Q 37.477132,4.8106671 37.21777,4.6645477 36.962061,4.5147754 36.622334,4.5147754 q -0.35434,0 -0.628313,0.1643843 -0.270321,0.1607312 -0.423746,0.434705 -0.153426,0.2703207 -0.157079,0.6027422 v 0.9168987 q 0,0.4164401 0.153426,0.7196377 0.157078,0.3031976 0.442011,0.4675818 0.284932,0.1643843 0.675801,0.1643843 0.259362,0 0.474888,-0.07306 0.215526,-0.07306 0.368951,-0.219179 0.153426,-0.1461193 0.233791,-0.3579923 l 1.439276,0.094977 Q 39.09175,7.9485795 38.752023,8.3357957 38.415948,8.719359 37.882613,8.934885 37.35293,9.146758 36.658863,9.146758 Z m 4.431251,-0.00365 q -0.536988,0 -0.957081,-0.1863021 Q 39.71294,8.7668478 39.46819,8.3978965 39.227093,8.0252922 39.227093,7.4700388 q 0,-0.4675819 0.17169,-0.7853914 0.17169,-0.3178095 0.467582,-0.5114176 0.295892,-0.1936081 0.672149,-0.2922387 0.37991,-0.098631 0.79635,-0.1388133 0.4895,-0.051142 0.789045,-0.094978 0.299544,-0.047489 0.434704,-0.1388134 0.135161,-0.091324 0.135161,-0.2703207 v -0.021918 q 0,-0.3470334 -0.219179,-0.5369885 -0.215526,-0.1899551 -0.613701,-0.1899551 -0.420093,0 -0.668496,0.1863021 -0.248403,0.1826491 -0.328769,0.4602759 L 39.424354,5.0188871 q 0.109589,-0.5114176 0.431052,-0.8840219 0.321463,-0.3762573 0.829227,-0.5771713 0.511418,-0.2045671 1.183567,-0.2045671 0.467582,0 0.894981,0.1095895 0.431052,0.1095895 0.763473,0.3397274 0.336074,0.230138 0.529683,0.5917833 0.193608,0.3579923 0.193608,0.858451 V 9.0371685 H 42.774139 V 8.2590831 h -0.04384 Q 42.595143,8.5220979 42.368658,8.723012 42.142173,8.920273 41.824364,9.0335155 41.506554,9.143105 41.090114,9.143105 Z m 0.445664,-1.073977 q 0.343381,0 0.606395,-0.1351604 0.263015,-0.1388133 0.412788,-0.3726043 0.149772,-0.2337909 0.149772,-0.5296825 V 6.4362445 q -0.07306,0.047489 -0.200914,0.087672 -0.124202,0.03653 -0.28128,0.069407 -0.157078,0.029224 -0.314156,0.054795 -0.157079,0.021918 -0.284933,0.040183 -0.273974,0.040183 -0.478541,0.1278544 -0.204567,0.087672 -0.317809,0.2374439 -0.113243,0.1461193 -0.113243,0.3652983 0,0.3178095 0.230138,0.4858467 0.233791,0.1643843 0.591783,0.1643843 z m 3.163663,0.9680405 v -5.610982 h 1.483111 v 0.9899584 h 0.06575 q 0.175343,-0.4931527 0.584477,-0.7780854 0.409134,-0.2849327 0.979,-0.2849327 0.577171,0 0.982652,0.2885857 0.405481,0.2849327 0.540642,0.7744324 h 0.05845 q 0.171691,-0.4821938 0.621008,-0.7707794 0.452969,-0.2922387 1.070324,-0.2922387 0.785391,0 1.274891,0.5004587 0.493152,0.4968057 0.493152,1.4100515 v 3.7735315 h -1.552517 v -3.466681 q 0,-0.4675818 -0.248403,-0.7013727 -0.248403,-0.2337909 -0.621007,-0.2337909 -0.423746,0 -0.66119,0.2703207 -0.237444,0.2666678 -0.237444,0.7050258 V 9.0371685 H 48.023656 V 5.5376107 q 0,-0.4127871 -0.237444,-0.657537 -0.233791,-0.2447498 -0.617354,-0.2447498 -0.259362,0 -0.467582,0.1315074 -0.204567,0.1278544 -0.325116,0.3616453 -0.120548,0.2301379 -0.120548,0.5406415 v 3.3680504 z m 9.530816,0.094978 q -0.361645,0 -0.621007,-0.2557089 -0.255709,-0.2593618 -0.255709,-0.6210071 0,-0.3579923 0.255709,-0.6137011 0.259362,-0.2557089 0.621007,-0.2557089 0.350687,0 0.613702,0.2557089 0.263014,0.2557088 0.263014,0.6137011 0,0.2410969 -0.124201,0.442011 -0.120549,0.1972611 -0.31781,0.3178095 -0.197261,0.1168955 -0.434705,0.1168955 z m 0,-3.9306098 q -0.361645,0 -0.621007,-0.2557089 -0.255709,-0.2557088 -0.255709,-0.6210071 0,-0.3579923 0.255709,-0.6100482 0.259362,-0.2557088 0.621007,-0.2557088 0.350687,0 0.613702,0.2557088 0.263014,0.2520559 0.263014,0.6100482 0,0.2447499 -0.124201,0.445664 -0.120549,0.197261 -0.31781,0.3141565 -0.197261,0.1168955 -0.434705,0.1168955 z m 1.362736,3.8356322 V 8.1093108 L 58.340036,4.7083835 V 4.6682007 H 55.68797 V 3.4261865 h 4.526046 V 4.4380628 L 57.63501,7.7549714 v 0.040183 h 2.673984 v 1.2420142 z m 7.547249,0.1095895 q -0.865757,0 -1.490417,-0.3506864 -0.621007,-0.3543393 -0.957082,-1.0009173 -0.336074,-0.650231 -0.336074,-1.5379059 0,-0.865757 0.336074,-1.519641 0.336075,-0.653884 0.946123,-1.0191823 0.613701,-0.3652983 1.439275,-0.3652983 0.555254,0 1.033795,0.1789962 0.482193,0.1753432 0.840186,0.5296825 0.361645,0.3543394 0.562559,0.8913279 0.200914,0.5333355 0.200914,1.2493202 v 0.427399 H 60.977676 V 5.6654651 h 3.273073 q 0,-0.3360744 -0.146119,-0.5954362 Q 63.95851,4.8106671 63.699148,4.6645477 63.44344,4.5147754 63.103712,4.5147754 q -0.354339,0 -0.628313,0.1643843 -0.270321,0.1607312 -0.423746,0.434705 -0.153425,0.2703207 -0.157078,0.6027422 v 0.9168987 q 0,0.4164401 0.153425,0.7196377 0.157078,0.3031976 0.442011,0.4675818 0.284933,0.1643843 0.675802,0.1643843 0.259362,0 0.474888,-0.07306 0.215526,-0.07306 0.368951,-0.219179 0.153425,-0.1461193 0.233791,-0.3579923 l 1.439275,0.094977 Q 65.573129,7.9485795 65.233401,8.3357957 64.897327,8.719359 64.363991,8.934885 63.834309,9.146758 63.140242,9.146758 Z m 4.387415,-3.3534385 v 3.243849 h -1.556171 v -5.610982 h 1.483111 v 0.9899584 h 0.06575 q 0.186302,-0.4894997 0.62466,-0.7744324 0.438358,-0.2885857 1.063018,-0.2885857 0.584478,0 1.019183,0.2557088 0.434705,0.2557088 0.675801,0.7305966 0.241097,0.4712349 0.241097,1.1251188 V 9.0371685 H 69.58794 V 5.7421778 q 0.0037,-0.5150707 -0.263015,-0.8036563 -0.266668,-0.2922387 -0.73425,-0.2922387 -0.314156,0 -0.555253,0.1351604 -0.237444,0.1351604 -0.372605,0.3945222 -0.131507,0.2557088 -0.13516,0.6173541 z"
     id="text1"
     style="font-weight:bold;font-size:10.2868px;font-family:inter;-inkscape-font-specification:'inter Bold';letter-spacing:-0.759639px;fill:#000000;stroke:none;stroke-width:23.7387;stroke-linecap:round;stroke-linejoin:round;stroke-dasharray:23.7387, 47.4774"
     aria-label="stream:zen" />
  <g
     id="g1"
     transform="matrix(1.1111889,0,0,1.1111889,-10.340589,-18.962768)">
    <path
       stroke-linecap="round"
       stroke-linejoin="round"
       d="m 21.629856,21.36956 3.573361,-3.573361 c 0.357626,-0.357182 0.968602,-0.104199 0.969047,0.401246 v 8.615434 c -4.45e-4,0.505445 -0.611421,0.758428 -0.969047,0.401246 l -3.573361,-3.57336"
       id="path1"
       style="stroke-width:1.1356"
       sodipodi:nodetypes="cccccc" />
    <path
       stroke-linecap="round"
       stroke-linejoin="round"
       d="m 9.7784131,25.032479 3.0942019,-3.414467 a 1.3494777,1.4891549 0 0 1 1.908462,0 l 3.094202,3.414467 m -0.899652,-0.99277 0.845073,-0.932541 a 1.3494777,1.4891549 0 0 1 1.908462,0 l 1.744725,1.925311 m -10.795822,2.481925 h 9.89617 a 0.89965188,0.99276998 0 0 0 0.899652,-0.99277 v -7.942159 a 0.89965188,0.99276998 0 0 0 -0.899652,-0.992771 h -9.89617 a 0.89965188,0.99276998 0 0 0 -0.8996519,0.992771 v 7.942159 a 0.89965188,0.99276998 0 0 0 0.8996519,0.99277 z m 6.297562,-7.445775 h 0.0047 v 0.0054 h -0.0047 z m 0.224914,0 a 0.22491326,0.24819282 0 1 1 -0.449826,0 0.22491326,0.24819282 0 0 1 0.449826,0 z"
       id="path1-0"
       style="stroke-width:0.945069" />
  </g>
</svg>
