<?xml version="1.0" encoding="UTF-8" standalone="no"?>
<svg
   fill="none"
   viewBox="0 0 22.662552 21.814375"
   stroke-width="1.5"
   stroke="currentColor"
   class="size-6"
   version="1.1"
   id="svg1"
   sodipodi:docname="streamzen-logo.svg"
   inkscape:version="1.3.2 (091e20e, 2023-11-25)"
   width="22.662552"
   height="21.814375"
   xmlns:inkscape="http://www.inkscape.org/namespaces/inkscape"
   xmlns:sodipodi="http://sodipodi.sourceforge.net/DTD/sodipodi-0.dtd"
   xmlns="http://www.w3.org/2000/svg"
   xmlns:svg="http://www.w3.org/2000/svg">
  <defs
     id="defs1" />
  <sodipodi:namedview
     id="namedview1"
     pagecolor="#505050"
     bordercolor="#eeeeee"
     borderopacity="1"
     inkscape:showpageshadow="0"
     inkscape:pageopacity="0"
     inkscape:pagecheckerboard="0"
     inkscape:deskcolor="#505050"
     inkscape:zoom="16.882174"
     inkscape:cx="16.289371"
     inkscape:cy="14.275413"
     inkscape:window-width="1392"
     inkscape:window-height="841"
     inkscape:window-x="0"
     inkscape:window-y="496"
     inkscape:window-maximized="0"
     inkscape:current-layer="svg1" />
  <path
     d="m 5.7486971,5.7790191 q -0.3616453,0 -0.6210071,-0.2557089 -0.2557088,-0.2593618 -0.2557088,-0.6210071 0,-0.3579923 0.2557088,-0.6137011 0.2593618,-0.2557089 0.6210071,-0.2557089 0.3506864,0 0.6137012,0.2557089 0.2630148,0.2557088 0.2630148,0.6137011 0,0.2410969 -0.1242015,0.442011 Q 6.3806632,5.5415752 6.1834021,5.6621236 5.986141,5.7790191 5.7486971,5.7790191 Z m 0,-3.9306098 q -0.3616453,0 -0.6210071,-0.2557089 -0.2557088,-0.2557088 -0.2557088,-0.62100709 0,-0.35799234 0.2557088,-0.61004817 0.2593618,-0.25570882 0.6210071,-0.25570882 0.3506864,0 0.6137012,0.25570882 0.2630148,0.25205583 0.2630148,0.61004817 0,0.24474989 -0.1242015,0.44566389 Q 6.3806632,1.6146183 6.1834021,1.7315138 5.986141,1.8484093 5.7486971,1.8484093 Z M 7.1114342,5.6840415 V 4.7561838 L 9.8584775,1.3552565 V 1.3150737 H 7.2064118 V 0.07305947 H 11.732458 V 1.0849358 L 9.1534517,4.4018444 v 0.040183 H 11.827435 V 5.6840415 Z M 14.658684,5.793631 q -0.865757,0 -1.490417,-0.3506864 -0.621008,-0.3543393 -0.957082,-1.0009174 -0.336074,-0.6502309 -0.336074,-1.5379058 0,-0.865757 0.336074,-1.519641 Q 12.547259,0.73059643 13.157308,0.36529812 13.771009,-1.8965114e-7 14.596583,-1.8965114e-7 q 0.555253,0 1.033794,0.17899616965114 0.482194,0.17534319 0.840186,0.52968255 0.361646,0.35433937 0.56256,0.89132787 0.200914,0.5333355 0.200914,1.2493202 v 0.427399 H 12.496118 V 2.3123381 h 3.273073 q 0,-0.3360744 -0.14612,-0.5954362 Q 15.476952,1.4575401 15.21759,1.3114207 14.961881,1.1616484 14.622154,1.1616484 q -0.354339,0 -0.628313,0.1643843 -0.270321,0.1607312 -0.423746,0.434705 -0.153426,0.2703207 -0.157079,0.6027422 v 0.9168987 q 0,0.4164401 0.153426,0.7196377 0.157078,0.3031976 0.442011,0.4675818 0.284932,0.1643843 0.675802,0.1643843 0.259361,0 0.474887,-0.07306 0.215526,-0.07306 0.368952,-0.219179 0.153425,-0.1461193 0.233791,-0.3579923 l 1.439275,0.094978 Q 17.09157,4.5954525 16.751843,4.9826687 16.415769,5.366232 15.882433,5.581758 15.352751,5.793631 14.658684,5.793631 Z m 4.387415,-3.3534385 v 3.243849 H 17.489928 V 0.07305947 h 1.483111 V 1.0630179 h 0.06575 Q 19.225095,0.57351816 19.663453,0.28858547 20.101811,-1.8965114e-7 20.726471,-1.8965114e-7 q 0.584477,0 1.019182,0.25570881965114 0.434705,0.25570881 0.675802,0.73059661 0.241097,0.47123486 0.241097,1.12511876 V 5.6840415 H 21.106381 V 2.3890508 q 0.0037,-0.5150707 -0.263015,-0.8036563 -0.266667,-0.2922387 -0.734249,-0.2922387 -0.314157,0 -0.555254,0.1351604 -0.237444,0.1351604 -0.372604,0.3945222 -0.131507,0.2557088 -0.13516,0.6173541 z"
     id="text1"
     style="font-weight:bold;font-size:10.2868px;font-family:inter;-inkscape-font-specification:'inter Bold';letter-spacing:-0.759639px;fill:#000000;stroke:none;stroke-width:23.7387;stroke-linecap:round;stroke-linejoin:round;stroke-dasharray:23.7387, 47.4774"
     aria-label=":zen" />
  <g
     id="g1"
     transform="matrix(1.2955896,0,0,1.2955896,-12.0566,-14.445211)">
    <path
       stroke-linecap="round"
       stroke-linejoin="round"
       d="m 21.629856,21.36956 3.573361,-3.573361 c 0.357626,-0.357182 0.968602,-0.104199 0.969047,0.401246 v 8.615434 c -4.45e-4,0.505445 -0.611421,0.758428 -0.969047,0.401246 l -3.573361,-3.57336"
       id="path1"
       style="stroke-width:1.1356"
       sodipodi:nodetypes="cccccc" />
    <path
       stroke-linecap="round"
       stroke-linejoin="round"
       d="m 9.7784131,25.032479 3.0942019,-3.414467 a 1.3494777,1.4891549 0 0 1 1.908462,0 l 3.094202,3.414467 m -0.899652,-0.99277 0.845073,-0.932541 a 1.3494777,1.4891549 0 0 1 1.908462,0 l 1.744725,1.925311 m -10.795822,2.481925 h 9.89617 a 0.89965188,0.99276998 0 0 0 0.899652,-0.99277 v -7.942159 a 0.89965188,0.99276998 0 0 0 -0.899652,-0.992771 h -9.89617 a 0.89965188,0.99276998 0 0 0 -0.8996519,0.992771 v 7.942159 a 0.89965188,0.99276998 0 0 0 0.8996519,0.99277 z m 6.297562,-7.445775 h 0.0047 v 0.0054 h -0.0047 z m 0.224914,0 a 0.22491326,0.24819282 0 1 1 -0.449826,0 0.22491326,0.24819282 0 0 1 0.449826,0 z"
       id="path1-0"
       style="stroke-width:0.945069" />
  </g>
</svg>
